<?xml version="1.0" encoding="utf-8"?>
<svg xmlns="http://www.w3.org/2000/svg" viewBox="36.464 29.878 407.217 212.328" xmlns:bx="https://boxy-svg.com">
  <defs>
    <bx:export>
      <bx:file format="svg"/>
    </bx:export>
  </defs>
  <g transform="matrix(1.386621, 0, 0, 1.434573, 53.733047, 42.227341)" style="">
    <g transform="matrix(3.127167, 0, 0, 2.940061, 91.108948, -181.828445)" style="">
      <path fill="#788293" d="M12.4,95.2c-1.5,0-2.6-0.3-3.3-0.9c-0.4-0.4-0.6-1-0.6-1.9v-8.7h1.8v7.9c0,0.8,0.1,1.4,0.4,1.6 c0.2,0.1,0.7,0.2,1.6,0.2V95.2z"/>
      <path fill="#788293" d="M19.9,95.2c-0.8,0-1.3,0-1.7-0.1c-0.3-0.1-0.6-0.3-0.9-0.6c-0.6,0.5-1.2,0.7-1.7,0.7h-4v-1.8h3.4 c0.5,0,0.9-0.1,1.1-0.3c0.2-0.2,0.3-0.6,0.3-1.1v-2.5h1.8v2.5c0,0.6,0.1,1,0.4,1.2c0.2,0.1,0.7,0.2,1.3,0.2V95.2z M15.8,86.4 c0,0.3-0.1,0.6-0.3,0.8c-0.2,0.2-0.5,0.3-0.8,0.3c-0.9,0-1.3-0.4-1.3-1.1c0-0.7,0.4-1,1.2-1C15.4,85.4,15.8,85.7,15.8,86.4z M19.3,86.4c0,0.3-0.1,0.6-0.3,0.8c-0.2,0.2-0.5,0.3-0.8,0.3c-0.9,0-1.3-0.4-1.3-1.1c0-0.7,0.4-1,1.2-1 C18.9,85.4,19.3,85.7,19.3,86.4z"/>
      <path fill="#788293" d="M24.6,95.2h-5.3v-1.8h5.3V95.2z"/>
      <path fill="#788293" d="M33.7,95.2c-0.6,0-1-0.1-1.3-0.2c-0.4-0.1-0.7-0.4-0.9-0.9c-0.5,0.9-1.4,1.3-2.5,1.3 c-0.4,0-0.9-0.1-1.3-0.4s-0.8-0.6-1.1-0.9c-0.1,0.7-1.1,1-2.8,1.1v-1.8c1,0,1.6-0.1,1.8-0.3c0.1-0.1,0.1-0.6,0.1-1.4 c0-1.1,0.3-2,0.8-2.7c0.6-0.7,1.4-1.1,2.5-1.1c1,0,1.8,0.4,2.3,1.2c0.5,0.7,0.8,1.6,0.8,2.6c0,0.4,0,0.6,0,0.7 c0,0.4,0.2,0.7,0.5,0.8c0.1,0.1,0.5,0.1,1.1,0.1V95.2z M30.5,91.6c0-1.3-0.5-1.9-1.5-1.9c-1.1,0-1.6,0.7-1.6,2.1 c0,1.3,0.5,1.9,1.6,1.9C29.9,93.6,30.5,92.9,30.5,91.6z"/>
      <path fill="#788293" d="M44.6,92.7c0,0.8-0.3,1.5-0.9,2.2c-0.6,0.6-1.3,1-2.1,1c-1,0-2.2-0.5-3.8-1.4c-0.8,0.4-1.7,0.6-2.6,0.6 l-2,0v-1.8h2.5c-0.7-0.9-1-1.7-1-2.5c0-0.9,0.3-1.6,0.8-2.1c0.6-0.6,1.3-0.8,2.1-0.8c0.8,0,1.5,0.3,2.2,1l-1.2-1.2l1.4-1.2 C43.1,89.2,44.6,91.4,44.6,92.7z M39,90.9c0-0.4-0.2-0.8-0.5-1s-0.7-0.4-1.1-0.4c-0.3,0-0.6,0.1-0.8,0.4c-0.2,0.3-0.3,0.5-0.3,0.9 c0,0.8,0.5,1.4,1.5,1.8C38.6,92.2,39,91.7,39,90.9z M42.7,92.8c0-0.7-0.8-1.9-2.4-3.5c0.4,0.4,0.6,1,0.6,1.7 c0,1.2-0.4,1.9-1.1,2.3c0.7,0.4,1.3,0.6,1.8,0.6C42.3,94,42.7,93.6,42.7,92.8z"/>
      <path fill="#788293" d="M50.6,95.2c-1.5,0-2.6-0.3-3.3-0.9c-0.4-0.4-0.6-1-0.6-1.9v-8.7h1.8v7.9c0,0.8,0.1,1.4,0.4,1.6 c0.2,0.1,0.7,0.2,1.6,0.2V95.2z"/>
      <path fill="#788293" d="M55.4,92.2c0,0.8-0.2,1.5-0.7,2.1c-0.5,0.6-1.2,0.9-1.9,0.9h-3v-1.8c1.9,0,3,0,3.2-0.1 c0.4-0.1,0.6-0.7,0.6-1.7c0-0.2,0-0.6,0-1.1c0-0.5,0-0.8,0-1.1h1.9V92.2z M53.3,98.6c0,0.4-0.1,0.7-0.4,0.9 c-0.2,0.2-0.5,0.4-0.9,0.4c-0.9,0-1.4-0.4-1.4-1.3c0-0.7,0.4-1.1,1.3-1.1C52.8,97.5,53.3,97.8,53.3,98.6z"/>
    </g>
    <g style="" transform="matrix(1.771835, 0, 0, 1.7289, -2.39269, -3.529022)">
      <g>
        <g>
          <path fill="#788293" d="M12.8,44.8c-5.4,0-9.7-4.4-9.7-9.7s4.4-9.7,9.7-9.7c5.4,0,9.7,4.4,9.7,9.7S18.1,44.8,12.8,44.8z M12.8,30.9c-2.3,0-4.1,1.8-4.1,4.1c0,2.3,1.8,4.1,4.1,4.1c2.3,0,4.1-1.8,4.1-4.1C16.9,32.8,15,30.9,12.8,30.9z"/>
        </g>
        <g>
          <path fill="#788293" d="M21.4,60.9c-5.4,0-9.7-4.4-9.7-9.7s4.4-9.7,9.7-9.7c5.4,0,9.7,4.4,9.7,9.7S26.8,60.9,21.4,60.9z M21.4,47.1c-2.3,0-4.1,1.8-4.1,4.1c0,2.3,1.8,4.1,4.1,4.1c2.3,0,4.1-1.8,4.1-4.1C25.6,49,23.7,47.1,21.4,47.1z"/>
        </g>
        <g>
          <path fill="#788293" d="M30.8,44.8c-5.4,0-9.7-4.4-9.7-9.7s4.4-9.7,9.7-9.7c5.4,0,9.7,4.4,9.7,9.7S36.2,44.8,30.8,44.8z M30.8,30.9c-2.3,0-4.1,1.8-4.1,4.1c0,2.3,1.8,4.1,4.1,4.1c2.3,0,4.1-1.8,4.1-4.1C34.9,32.8,33.1,30.9,30.8,30.9z"/>
        </g>
        <g>
          <path fill="#788293" d="M30.8,76.7c-5.4,0-9.7-4.4-9.7-9.7s4.4-9.7,9.7-9.7c5.4,0,9.7,4.4,9.7,9.7S36.2,76.7,30.8,76.7z M30.8,62.8c-2.3,0-4.1,1.8-4.1,4.1c0,2.3,1.8,4.1,4.1,4.1c2.3,0,4.1-1.8,4.1-4.1C34.9,64.7,33.1,62.8,30.8,62.8z"/>
        </g>
        <g>
          <path fill="#788293" d="M48.9,44.8c-5.4,0-9.7-4.4-9.7-9.7s4.4-9.7,9.7-9.7c5.4,0,9.7,4.4,9.7,9.7S54.2,44.8,48.9,44.8z M48.9,30.9c-2.3,0-4.1,1.8-4.1,4.1c0,2.3,1.8,4.1,4.1,4.1c2.3,0,4.1-1.8,4.1-4.1C53,32.8,51.1,30.9,48.9,30.9z"/>
        </g>
        <g>
          <path fill="#788293" d="M39.9,60.9c-5.4,0-9.7-4.4-9.7-9.7s4.4-9.7,9.7-9.7c5.4,0,9.7,4.4,9.7,9.7S45.2,60.9,39.9,60.9z M39.9,47.1c-2.3,0-4.1,1.8-4.1,4.1c0,2.3,1.8,4.1,4.1,4.1c2.3,0,4.1-1.8,4.1-4.1C44,49,42.1,47.1,39.9,47.1z"/>
        </g>
      </g>
      <g>
        <g>
          <path fill="#788293" d="M30.8,23.4L30.8,23.4c-1.2,0-2.2-1-2.2-2.2v-6.3c0-1.2,1-2.2,2.2-2.2h0c1.2,0,2.2,1,2.2,2.2v6.3 C33,22.4,32,23.4,30.8,23.4z"/>
        </g>
        <g>
          <path fill="#788293" d="M56.4,6c-0.7,0-2.6-0.4-2.6-0.4c-19.2-4.1-19.7,9.6-19.6,13c1.3-2.5,4.6-7,12.4-9.2c0,0,2-0.3,0.8,0.8 c-1.2,1.1-5.1,0.2-11.9,10.1l0.7,0.5C48,25.3,57.1,6,56.4,6z"/>
        </g>
        <g>
          <path fill="#788293" d="M9.6,9c0.5,0,2.1-0.3,2.1-0.3C27.1,5.5,27.4,16.4,27.3,19c-1-2-3.7-5.6-9.9-7.4c0,0-1.6-0.3-0.6,0.6 c1,0.9,4.1,0.2,9.5,8.1l-0.5,0.4C16.3,24.5,9.1,9,9.6,9z"/>
        </g>
      </g>
    </g>
  </g>
</svg>