<?xml version="1.0" encoding="UTF-8"?>
<!DOCTYPE svg PUBLIC "-//W3C//DTD SVG 1.1//EN" "http://www.w3.org/Graphics/SVG/1.1/DTD/svg11.dtd">
<svg xmlns="http://www.w3.org/2000/svg" version="1.1" width="808px" height="309px" style="shape-rendering:geometricPrecision; text-rendering:geometricPrecision; image-rendering:optimizeQuality; fill-rule:evenodd; clip-rule:evenodd" xmlns:xlink="http://www.w3.org/1999/xlink">
<g><path style="opacity:0.608" fill="#bdbfc4" d="M 763.5,142.5 C 763.38,141.414 762.713,140.747 761.5,140.5C 759.7,140.902 758.033,141.569 756.5,142.5C 760.19,133.792 763.857,125.126 767.5,116.5C 753.645,111.771 739.645,107.438 725.5,103.5C 719.633,104.568 713.966,106.234 708.5,108.5C 708.5,107.5 708.5,106.5 708.5,105.5C 707.178,105.67 706.011,105.337 705,104.5C 704.361,107.228 703.194,107.728 701.5,106C 701.833,105.667 702.167,105.333 702.5,105C 701.207,104.51 699.873,104.343 698.5,104.5C 707.473,101.29 716.64,98.2896 726,95.5C 743.431,100.689 760.597,106.689 777.5,113.5C 772.524,123.115 767.858,132.782 763.5,142.5 Z"/></g>
<g><path style="opacity:1" fill="#798191" d="M 150.5,119.5 C 154.167,119.5 157.833,119.5 161.5,119.5C 161.5,123.167 161.5,126.833 161.5,130.5C 157.833,130.5 154.167,130.5 150.5,130.5C 150.5,126.833 150.5,123.167 150.5,119.5 Z"/></g>
<g><path style="opacity:0.999" fill="#7f8797" d="M 173.5,120.5 C 177.5,120.5 181.5,120.5 185.5,120.5C 185.5,140.167 185.5,159.833 185.5,179.5C 181.167,179.5 176.833,179.5 172.5,179.5C 172.179,159.757 172.513,140.091 173.5,120.5 Z"/></g>
<g><path style="opacity:1" fill="#848c9b" d="M 392.5,137.5 C 392.168,147.522 392.501,157.522 393.5,167.5C 394.086,167.709 394.586,168.043 395,168.5C 395.202,166.744 395.702,165.078 396.5,163.5C 397.634,167.831 397.634,172.164 396.5,176.5C 400.104,175.755 403.771,175.922 407.5,177C 394.307,176.925 380.974,177.259 367.5,178C 366.944,178.383 366.611,178.883 366.5,179.5C 364.5,179.5 362.5,179.5 360.5,179.5C 360.174,159.924 360.507,140.424 361.5,121C 365.423,120.207 369.256,120.374 373,121.5C 373.5,137.163 373.667,152.83 373.5,168.5C 379.5,168.5 385.5,168.5 391.5,168.5C 391.172,157.986 391.506,147.653 392.5,137.5 Z"/></g>
<g><path style="opacity:1" fill="#a3a8b2" d="M 698.5,104.5 C 699.873,104.343 701.207,104.51 702.5,105C 702.167,105.333 701.833,105.667 701.5,106C 703.194,107.728 704.361,107.228 705,104.5C 706.011,105.337 707.178,105.67 708.5,105.5C 708.5,106.5 708.5,107.5 708.5,108.5C 701.212,111.096 693.879,113.596 686.5,116C 699.385,122.193 712.551,127.693 726,132.5C 726.5,156.831 726.667,181.164 726.5,205.5C 725.514,201.03 725.181,196.363 725.5,191.5C 725.5,183.5 725.5,175.5 725.5,167.5C 725.666,159.493 725.5,151.493 725,143.5C 724.667,148.833 724.333,154.167 724,159.5C 723.667,159.167 723.333,158.833 723,158.5C 722.667,159.833 722.333,161.167 722,162.5C 721.667,158.833 721.333,155.167 721,151.5C 720.951,154.416 719.784,155.416 717.5,154.5C 709.86,145.696 701.36,137.696 692,130.5C 691.363,128.697 690.197,127.364 688.5,126.5C 689.167,125.833 689.833,125.167 690.5,124.5C 690.167,124.167 689.833,123.833 689.5,123.5C 687.902,124.485 686.235,124.651 684.5,124C 687.051,122.484 686.718,121.651 683.5,121.5C 683.914,125.282 683.914,128.949 683.5,132.5C 680.411,126.486 677.411,120.319 674.5,114C 678.162,111.502 682.162,109.502 686.5,108C 690.671,107.331 694.671,106.164 698.5,104.5 Z"/></g>
<g><path style="opacity:1" fill="#858c9a" d="M 114.5,137.5 C 114.19,146.408 114.856,155.241 116.5,164C 116.435,166.225 116.102,168.392 115.5,170.5C 108.61,171.811 101.777,171.811 95,170.5C 93.7949,171.071 92.6283,171.738 91.5,172.5C 92.5063,173.396 92.5063,174.062 91.5,174.5C 89.9098,172.32 88.5765,169.987 87.5,167.5C 86.3452,170.446 86.1786,173.446 87,176.5C 88.1939,177.43 89.5272,178.097 91,178.5C 105.71,177.97 120.543,177.97 135.5,178.5C 142.687,178.175 149.687,178.509 156.5,179.5C 131.833,179.5 107.167,179.5 82.5,179.5C 82.1737,159.924 82.5071,140.424 83.5,121C 87.423,120.207 91.2564,120.374 95,121.5C 95.4999,137.163 95.6666,152.83 95.5,168.5C 101.5,168.5 107.5,168.5 113.5,168.5C 113.172,157.986 113.506,147.653 114.5,137.5 Z"/></g>
<g><path style="opacity:1" fill="#7d8695" d="M 263.5,120.5 C 267.5,120.5 271.5,120.5 275.5,120.5C 275.5,140.167 275.5,159.833 275.5,179.5C 271.5,179.5 267.5,179.5 263.5,179.5C 263.5,159.833 263.5,140.167 263.5,120.5 Z"/></g>
<g><path style="opacity:1" fill="#7b8394" d="M 427.5,119.5 C 431.5,119.5 435.5,119.5 439.5,119.5C 439.5,123.167 439.5,126.833 439.5,130.5C 435.5,130.5 431.5,130.5 427.5,130.5C 427.5,126.833 427.5,123.167 427.5,119.5 Z"/></g>
<g><path style="opacity:1" fill="#798193" d="M 632.5,120.5 C 636.5,120.5 640.5,120.5 644.5,120.5C 644.5,140.167 644.5,159.833 644.5,179.5C 640.5,179.5 636.5,179.5 632.5,179.5C 632.5,159.833 632.5,140.167 632.5,120.5 Z"/></g>
<g><path style="opacity:0.165" fill="#d9dce1" d="M 333.5,128.5 C 329.936,127.577 326.269,127.244 322.5,127.5C 322.237,131.6 322.57,135.6 323.5,139.5C 321.57,135.627 320.903,131.294 321.5,126.5C 325.971,125.911 329.971,126.577 333.5,128.5 Z"/></g>
<g><path style="opacity:1" fill="#7c8393" d="M 333.5,128.5 C 333.5,132.167 333.5,135.833 333.5,139.5C 330.167,139.5 326.833,139.5 323.5,139.5C 322.57,135.6 322.237,131.6 322.5,127.5C 326.269,127.244 329.936,127.577 333.5,128.5 Z"/></g>
<g><path style="opacity:1" fill="#9aa0ab" d="M 725.5,167.5 C 724.072,171.299 722.905,175.299 722,179.5C 721.818,176.774 721.318,174.107 720.5,171.5C 719.188,172.46 717.854,172.294 716.5,171C 712.986,166.487 708.819,162.653 704,159.5C 702.667,157.5 701.333,155.5 700,153.5C 697.518,154.624 697.018,156.29 698.5,158.5C 697.757,159.182 697.091,159.849 696.5,160.5C 691.425,151.654 687.091,142.32 683.5,132.5C 683.914,128.949 683.914,125.282 683.5,121.5C 686.718,121.651 687.051,122.484 684.5,124C 686.235,124.651 687.902,124.485 689.5,123.5C 689.833,123.833 690.167,124.167 690.5,124.5C 689.833,125.167 689.167,125.833 688.5,126.5C 690.197,127.364 691.363,128.697 692,130.5C 701.36,137.696 709.86,145.696 717.5,154.5C 719.784,155.416 720.951,154.416 721,151.5C 721.333,155.167 721.667,158.833 722,162.5C 722.333,161.167 722.667,159.833 723,158.5C 723.333,158.833 723.667,159.167 724,159.5C 724.333,154.167 724.667,148.833 725,143.5C 725.5,151.493 725.666,159.493 725.5,167.5 Z"/></g>
<g><path style="opacity:1" fill="#818898" d="M 55.5,136.5 C 54.5,137.5 53.5,138.5 52.5,139.5C 49.5,139.5 46.5,139.5 43.5,139.5C 43.5,135.167 43.5,130.833 43.5,126.5C 47.5,126.5 51.5,126.5 55.5,126.5C 55.5,129.833 55.5,133.167 55.5,136.5 Z"/></g>
<g><path style="opacity:0.004" fill="#dddfe2" d="M 55.5,136.5 C 55.5,137.5 55.5,138.5 55.5,139.5C 54.5,139.5 53.5,139.5 52.5,139.5C 53.5,138.5 54.5,137.5 55.5,136.5 Z"/></g>
<g><path style="opacity:0.988" fill="#788193" d="M 114.5,137.5 C 116.5,137.5 118.5,137.5 120.5,137.5C 121.836,139.01 123.003,140.677 124,142.5C 124.667,148.167 124.667,153.833 124,159.5C 123.308,160.025 122.808,160.692 122.5,161.5C 123.106,163.709 123.773,165.876 124.5,168C 123.346,168.914 123.513,169.747 125,170.5C 125.414,170.043 125.914,169.709 126.5,169.5C 132.115,170.289 137.782,170.789 143.5,171C 145.061,171.318 146.228,172.151 147,173.5C 149.537,172.823 151.537,173.823 153,176.5C 155.139,175.231 157.305,175.231 159.5,176.5C 151.343,177.167 143.343,177.833 135.5,178.5C 120.543,177.97 105.71,177.97 91,178.5C 89.5272,178.097 88.1939,177.43 87,176.5C 86.1786,173.446 86.3452,170.446 87.5,167.5C 88.5765,169.987 89.9098,172.32 91.5,174.5C 92.5063,174.062 92.5063,173.396 91.5,172.5C 92.6283,171.738 93.7949,171.071 95,170.5C 101.777,171.811 108.61,171.811 115.5,170.5C 116.102,168.392 116.435,166.225 116.5,164C 114.856,155.241 114.19,146.408 114.5,137.5 Z"/></g>
<g><path style="opacity:0.997" fill="#7c8494" d="M 203.5,137.5 C 207.5,137.5 211.5,137.5 215.5,137.5C 215.5,147.833 215.5,158.167 215.5,168.5C 223.5,168.5 231.5,168.5 239.5,168.5C 239.5,158.167 239.5,147.833 239.5,137.5C 243.833,137.5 248.167,137.5 252.5,137.5C 252.5,151.5 252.5,165.5 252.5,179.5C 240.167,179.5 227.833,179.5 215.5,179.5C 216.588,194.764 209.588,201.764 194.5,200.5C 194.5,196.5 194.5,192.5 194.5,188.5C 198.716,189.107 201.55,187.44 203,183.5C 203.5,168.17 203.667,152.837 203.5,137.5 Z"/></g>
<g><path style="opacity:1" fill="#7a8292" d="M 120.5,137.5 C 122.5,137.5 124.5,137.5 126.5,137.5C 126.5,147.833 126.5,158.167 126.5,168.5C 134.352,168.825 142.018,168.492 149.5,167.5C 150.494,158.014 150.827,148.348 150.5,138.5C 151.791,138.737 152.791,138.404 153.5,137.5C 156.167,137.5 158.833,137.5 161.5,137.5C 161.5,151.5 161.5,165.5 161.5,179.5C 159.833,179.5 158.167,179.5 156.5,179.5C 149.687,178.509 142.687,178.175 135.5,178.5C 143.343,177.833 151.343,177.167 159.5,176.5C 157.305,175.231 155.139,175.231 153,176.5C 151.537,173.823 149.537,172.823 147,173.5C 146.228,172.151 145.061,171.318 143.5,171C 137.782,170.789 132.115,170.289 126.5,169.5C 125.914,169.709 125.414,170.043 125,170.5C 123.513,169.747 123.346,168.914 124.5,168C 123.773,165.876 123.106,163.709 122.5,161.5C 122.808,160.692 123.308,160.025 124,159.5C 124.667,153.833 124.667,148.167 124,142.5C 123.003,140.677 121.836,139.01 120.5,137.5 Z"/></g>
<g><path style="opacity:0.326" fill="#acb1b9" d="M 153.5,137.5 C 152.791,138.404 151.791,138.737 150.5,138.5C 150.827,148.348 150.494,158.014 149.5,167.5C 149.5,157.5 149.5,147.5 149.5,137.5C 150.833,137.5 152.167,137.5 153.5,137.5 Z"/></g>
<g><path style="opacity:1" fill="#798190" d="M 392.5,137.5 C 396.5,137.5 400.5,137.5 404.5,137.5C 404.5,147.833 404.5,158.167 404.5,168.5C 412.352,168.825 420.018,168.492 427.5,167.5C 428.494,158.014 428.827,148.348 428.5,138.5C 432.167,138.5 435.833,138.5 439.5,138.5C 439.207,148.551 439.54,158.551 440.5,168.5C 438.88,159.501 437.713,150.168 437,140.5C 434.568,139.55 432.068,139.55 429.5,140.5C 429.5,141.5 429.5,142.5 429.5,143.5C 431.167,143.5 432.833,143.5 434.5,143.5C 434.644,150.356 434.311,157.19 433.5,164C 433.445,166.906 434.112,169.573 435.5,172C 435.3,174.537 433.967,176.204 431.5,177C 446.202,176.847 460.535,177.68 474.5,179.5C 438.5,179.5 402.5,179.5 366.5,179.5C 366.611,178.883 366.944,178.383 367.5,178C 380.974,177.259 394.307,176.925 407.5,177C 403.771,175.922 400.104,175.755 396.5,176.5C 397.634,172.164 397.634,167.831 396.5,163.5C 395.702,165.078 395.202,166.744 395,168.5C 394.586,168.043 394.086,167.709 393.5,167.5C 392.501,157.522 392.168,147.522 392.5,137.5 Z"/></g>
<g><path style="opacity:0.298" fill="#a7abb5" d="M 439.5,138.5 C 435.833,138.5 432.167,138.5 428.5,138.5C 428.827,148.348 428.494,158.014 427.5,167.5C 427.5,157.5 427.5,147.5 427.5,137.5C 431.702,137.183 435.702,137.517 439.5,138.5 Z"/></g>
<g><path style="opacity:0.997" fill="#7b8394" d="M 474.5,179.5 C 460.535,177.68 446.202,176.847 431.5,177C 433.967,176.204 435.3,174.537 435.5,172C 434.112,169.573 433.445,166.906 433.5,164C 434.311,157.19 434.644,150.356 434.5,143.5C 432.833,143.5 431.167,143.5 429.5,143.5C 429.5,142.5 429.5,141.5 429.5,140.5C 432.068,139.55 434.568,139.55 437,140.5C 437.713,150.168 438.88,159.501 440.5,168.5C 448.167,168.5 455.833,168.5 463.5,168.5C 463.5,158.167 463.5,147.833 463.5,137.5C 467.5,137.5 471.5,137.5 475.5,137.5C 475.829,151.677 475.496,165.677 474.5,179.5 Z"/></g>
<g><path style="opacity:0.999" fill="#7e8594" d="M 559.5,135.5 C 575.601,133.122 585.435,139.789 589,155.5C 589.369,159.863 589.869,164.196 590.5,168.5C 596.5,168.5 602.5,168.5 608.5,168.5C 608.5,158.167 608.5,147.833 608.5,137.5C 612.833,137.5 617.167,137.5 621.5,137.5C 621.5,151.5 621.5,165.5 621.5,179.5C 597.833,179.5 574.167,179.5 550.5,179.5C 550.5,175.833 550.5,172.167 550.5,168.5C 559.167,168.5 567.833,168.5 576.5,168.5C 578.446,152.446 571.446,145.446 555.5,147.5C 555.212,144.134 555.046,140.8 555,137.5C 556.622,136.901 558.122,136.234 559.5,135.5 Z"/></g>
<g><path style="opacity:0.998" fill="#adb1b8" d="M 763.5,142.5 C 758.123,155.431 752.456,168.098 746.5,180.5C 746.489,178.983 745.823,177.816 744.5,177C 744.833,176.667 745.167,176.333 745.5,176C 744.364,174.855 743.364,173.688 742.5,172.5C 746.983,162.372 751.649,152.372 756.5,142.5C 758.033,141.569 759.7,140.902 761.5,140.5C 762.713,140.747 763.38,141.414 763.5,142.5 Z"/></g>
<g><path style="opacity:0.994" fill="#959aa7" d="M 725.5,167.5 C 725.5,175.5 725.5,183.5 725.5,191.5C 724.683,193.969 724.183,196.635 724,199.5C 723.667,196.833 723.333,194.167 723,191.5C 721.443,192.205 720.277,191.539 719.5,189.5C 716.64,188.82 714.14,187.487 712,185.5C 711.167,186.333 710.333,187.167 709.5,188C 710.667,188.5 711.5,189.333 712,190.5C 713.461,194.107 714.628,197.773 715.5,201.5C 711.128,193.76 706.961,185.76 703,177.5C 700.577,171.917 698.41,166.251 696.5,160.5C 697.091,159.849 697.757,159.182 698.5,158.5C 697.018,156.29 697.518,154.624 700,153.5C 701.333,155.5 702.667,157.5 704,159.5C 708.819,162.653 712.986,166.487 716.5,171C 717.854,172.294 719.188,172.46 720.5,171.5C 721.318,174.107 721.818,176.774 722,179.5C 722.905,175.299 724.072,171.299 725.5,167.5 Z"/></g>
<g><path style="opacity:1" fill="#778193" d="M 612.5,139.5 C 615.588,139.197 617.254,140.53 617.5,143.5C 616.167,143.5 614.833,143.5 613.5,143.5C 613.334,153.839 613.5,164.172 614,174.5C 617.462,174.983 617.962,176.15 615.5,178C 595.5,178.667 575.5,178.667 555.5,178C 554.5,177.667 553.5,177.333 552.5,177C 553.406,175.301 553.739,173.467 553.5,171.5C 561.528,171.831 569.528,171.498 577.5,170.5C 579.206,168.915 580.539,167.082 581.5,165C 580.672,161.836 580.672,158.836 581.5,156C 577.697,154.4 577.864,152.9 582,151.5C 582.945,151.905 583.612,152.572 584,153.5C 585.708,158.369 586.875,163.369 587.5,168.5C 588.287,169.242 588.953,170.075 589.5,171C 595.292,171.471 600.459,171.304 605,170.5C 605.9,172.398 607.066,174.064 608.5,175.5C 610.108,164.913 610.942,154.246 611,143.5C 611.791,142.255 612.291,140.922 612.5,139.5 Z"/></g>
<g><path style="opacity:1" fill="#7c8494" d="M 516.5,136.5 C 526.118,136.228 535.618,136.895 545,138.5C 545.5,152.163 545.667,165.829 545.5,179.5C 535.161,179.666 524.828,179.5 514.5,179C 507.459,178.293 503.293,174.459 502,167.5C 501.144,159.768 501.477,152.102 503,144.5C 504.167,142 506,140.167 508.5,139C 511.379,138.454 514.046,137.621 516.5,136.5 Z M 520.5,147.5 C 524.24,147.241 527.906,147.574 531.5,148.5C 532.497,155.134 532.83,161.8 532.5,168.5C 528.154,168.666 523.821,168.499 519.5,168C 513.887,164.781 512.054,159.948 514,153.5C 515.436,150.558 517.603,148.558 520.5,147.5 Z"/></g>
<g><path style="opacity:1" fill="#7e8797" d="M 350.5,185.5 C 347.916,186.048 346.916,187.715 347.5,190.5C 344.434,190.724 341.934,192.057 340,194.5C 338.004,194.004 336.337,193.004 335,191.5C 332.343,193.984 329.51,194.15 326.5,192C 329.768,191.89 332.101,190.39 333.5,187.5C 335.901,186.254 337.401,184.254 338,181.5C 338.5,166.837 338.667,152.17 338.5,137.5C 342.833,137.5 347.167,137.5 351.5,137.5C 351.83,153.675 351.496,169.675 350.5,185.5 Z"/></g>
<g><path style="opacity:1" fill="#828a99" d="M 60.5,137.5 C 64.8333,137.5 69.1667,137.5 73.5,137.5C 73.6666,153.503 73.4999,169.503 73,185.5C 68.4511,195.534 60.6177,200.534 49.5,200.5C 40.2095,200.438 32.7095,196.771 27,189.5C 25.0734,178.185 25.2401,166.852 27.5,155.5C 31.2396,155.241 34.9062,155.574 38.5,156.5C 38.8333,157.667 39.1667,158.833 39.5,160C 38.5991,165.473 37.9325,170.973 37.5,176.5C 37.0209,184.523 40.8542,188.523 49,188.5C 54.4007,188.646 58.0673,186.312 60,181.5C 60.4999,166.837 60.6666,152.17 60.5,137.5 Z"/></g>
<g><path style="opacity:1" fill="#788193" d="M 66.5,139.5 C 67.8221,139.33 68.9887,139.663 70,140.5C 70.2243,153.185 70.7243,165.852 71.5,178.5C 71.446,184.705 69.1127,189.705 64.5,193.5C 61.2033,194.649 58.0366,195.983 55,197.5C 52.9068,196.754 50.9068,196.421 49,196.5C 46.1737,198.34 43.0071,199.006 39.5,198.5C 39.5,196.833 39.5,195.167 39.5,193.5C 44.5314,193.366 49.3648,192.366 54,190.5C 56.9294,191.276 58.596,189.943 59,186.5C 59.6667,187.833 60.3333,187.833 61,186.5C 61.346,184.782 61.846,183.115 62.5,181.5C 62.375,169.229 62.375,156.562 62.5,143.5C 65.142,143.512 66.4754,142.179 66.5,139.5 Z"/></g>
<g><path style="opacity:0.997" fill="#7c8592" d="M 463.5,185.5 C 467.5,185.5 471.5,185.5 475.5,185.5C 475.5,189.167 475.5,192.833 475.5,196.5C 471.5,196.5 467.5,196.5 463.5,196.5C 463.5,192.833 463.5,189.167 463.5,185.5 Z"/></g>
<g><path style="opacity:1" fill="#858d98" d="M 120.5,185.5 C 124.167,185.5 127.833,185.5 131.5,185.5C 131.5,189.167 131.5,192.833 131.5,196.5C 128.15,196.665 124.817,196.498 121.5,196C 120.544,192.606 120.211,189.106 120.5,185.5 Z"/></g>
<g><path style="opacity:1" fill="#7c8391" d="M 247.5,185.5 C 250.833,185.5 254.167,185.5 257.5,185.5C 257.5,189.167 257.5,192.833 257.5,196.5C 254.167,196.5 250.833,196.5 247.5,196.5C 247.5,192.833 247.5,189.167 247.5,185.5 Z"/></g>
<g><path style="opacity:1" fill="#818998" d="M 333.5,187.5 C 332.101,190.39 329.768,191.89 326.5,192C 329.51,194.15 332.343,193.984 335,191.5C 336.337,193.004 338.004,194.004 340,194.5C 341.934,192.057 344.434,190.724 347.5,190.5C 346.916,187.715 347.916,186.048 350.5,185.5C 347.699,193.583 342.033,198.417 333.5,200C 308.681,201.591 298.848,190.091 304,165.5C 304.61,162.173 305.11,158.839 305.5,155.5C 309.24,155.241 312.906,155.574 316.5,156.5C 316.833,157.667 317.167,158.833 317.5,160C 316.669,165.648 316.002,171.314 315.5,177C 314.753,183.178 317.419,186.845 323.5,188C 326.868,188.543 330.201,188.376 333.5,187.5 Z"/></g>
<g><path style="opacity:1" fill="#7c8493" d="M 616.5,185.5 C 619.833,185.5 623.167,185.5 626.5,185.5C 626.5,189.167 626.5,192.833 626.5,196.5C 623.167,196.5 619.833,196.5 616.5,196.5C 616.5,192.833 616.5,189.167 616.5,185.5 Z"/></g>
<g><path style="opacity:1" fill="#76808e" d="M 235.5,185.5 C 238.5,185.5 241.5,185.5 244.5,185.5C 244.684,188.477 244.684,191.144 244.5,193.5C 241.855,195.242 238.855,195.909 235.5,195.5C 235.5,192.167 235.5,188.833 235.5,185.5 Z"/></g>
<g><path style="opacity:0.908" fill="#787e8d" d="M 387.5,185.5 C 390.5,185.5 393.5,185.5 396.5,185.5C 396.5,188.833 396.5,192.167 396.5,195.5C 393.5,195.5 390.5,195.5 387.5,195.5C 387.5,192.167 387.5,188.833 387.5,185.5 Z"/></g>
<g><path style="opacity:0.987" fill="#828996" d="M 399.5,185.5 C 402.833,185.5 406.167,185.5 409.5,185.5C 409.5,189.167 409.5,192.833 409.5,196.5C 406.167,196.5 402.833,196.5 399.5,196.5C 398.343,192.784 398.343,189.117 399.5,185.5 Z"/></g>
<g><path style="opacity:0.984" fill="#838a96" d="M 108.5,185.5 C 111.833,185.5 115.167,185.5 118.5,185.5C 118.5,189.167 118.5,192.833 118.5,196.5C 115.167,196.5 111.833,196.5 108.5,196.5C 108.5,192.833 108.5,189.167 108.5,185.5 Z"/></g>
<g><path style="opacity:0.984" fill="#838a97" d="M 603.5,185.5 C 606.833,185.5 610.167,185.5 613.5,185.5C 613.5,189.167 613.5,192.833 613.5,196.5C 610.167,196.5 606.833,196.5 603.5,196.5C 603.5,192.833 603.5,189.167 603.5,185.5 Z"/></g>
<g><path style="opacity:0.376" fill="#adb2bb" d="M 235.5,185.5 C 235.5,188.833 235.5,192.167 235.5,195.5C 238.855,195.909 241.855,195.242 244.5,193.5C 244.5,194.5 244.5,195.5 244.5,196.5C 241.167,196.5 237.833,196.5 234.5,196.5C 234.185,192.629 234.518,188.962 235.5,185.5 Z"/></g>
<g><path style="opacity:0.384" fill="#afb4bc" d="M 387.5,185.5 C 387.5,188.833 387.5,192.167 387.5,195.5C 390.5,195.5 393.5,195.5 396.5,195.5C 393.375,196.479 390.042,196.813 386.5,196.5C 386.185,192.629 386.518,188.962 387.5,185.5 Z"/></g>
<g><path style="opacity:0.882" fill="#9197a3" d="M 742.5,172.5 C 743.364,173.688 744.364,174.855 745.5,176C 745.167,176.333 744.833,176.667 744.5,177C 745.823,177.816 746.489,178.983 746.5,180.5C 740.225,194.882 733.558,209.049 726.5,223C 725.668,223.688 725.002,223.521 724.5,222.5C 723.586,220.336 722.419,218.336 721,216.5C 719.123,211.433 717.29,206.433 715.5,201.5C 714.628,197.773 713.461,194.107 712,190.5C 711.5,189.333 710.667,188.5 709.5,188C 710.333,187.167 711.167,186.333 712,185.5C 714.14,187.487 716.64,188.82 719.5,189.5C 720.277,191.539 721.443,192.205 723,191.5C 723.333,194.167 723.667,196.833 724,199.5C 724.183,196.635 724.683,193.969 725.5,191.5C 725.181,196.363 725.514,201.03 726.5,205.5C 731.84,195.137 737.174,184.137 742.5,172.5 Z"/></g>
</svg>
