<?xml version="1.0" encoding="UTF-8"?>
<!DOCTYPE svg PUBLIC "-//W3C//DTD SVG 1.1//EN" "http://www.w3.org/Graphics/SVG/1.1/DTD/svg11.dtd">
<svg xmlns="http://www.w3.org/2000/svg" version="1.1" width="808px" height="309px" style="shape-rendering:geometricPrecision; text-rendering:geometricPrecision; image-rendering:optimizeQuality; fill-rule:evenodd; clip-rule:evenodd" xmlns:xlink="http://www.w3.org/1999/xlink">
<g><path style="opacity:1" fill="#a5abb4" d="M 374.5,21.5 C 376.292,22.3091 378.292,22.8091 380.5,23C 381.984,24.5737 383.651,25.907 385.5,27C 382.735,29.9663 383.068,32.633 386.5,35C 392.706,36.8825 398.706,39.2159 404.5,42C 403.263,42.2321 402.263,42.7321 401.5,43.5C 392.651,43.1736 383.984,43.507 375.5,44.5C 371.202,45.8024 368.202,48.4691 366.5,52.5C 366.5,51.1667 366.5,49.8333 366.5,48.5C 367.968,47.2209 368.635,45.5542 368.5,43.5C 369.5,43.5 370.5,43.5 371.5,43.5C 372.167,41.5 372.833,39.5 373.5,37.5C 374.552,37.6495 375.552,37.4828 376.5,37C 373,36.1667 370.833,34 370,30.5C 368.421,28.9588 366.587,27.7922 364.5,27C 363.707,25.9148 363.04,24.7481 362.5,23.5C 366.32,21.8552 370.32,21.1885 374.5,21.5 Z"/></g>
<g><path style="opacity:1" fill="#a0a5b0" d="M 375.5,20.5 C 375.5,21.1667 375.167,21.5 374.5,21.5C 370.32,21.1885 366.32,21.8552 362.5,23.5C 363.04,24.7481 363.707,25.9148 364.5,27C 366.587,27.7922 368.421,28.9588 370,30.5C 370.833,34 373,36.1667 376.5,37C 375.552,37.4828 374.552,37.6495 373.5,37.5C 372.833,39.5 372.167,41.5 371.5,43.5C 370.5,43.5 369.5,43.5 368.5,43.5C 368.635,45.5542 367.968,47.2209 366.5,48.5C 362.134,43.1485 357.3,38.1485 352,33.5C 351.667,35.1667 351.333,36.8333 351,38.5C 350.231,35.9009 350.398,33.4009 351.5,31C 350.551,30.3828 349.718,30.5494 349,31.5C 347.691,29.1088 346.691,29.1088 346,31.5C 345.667,31.1667 345.333,30.8333 345,30.5C 344.506,32.1341 344.34,33.8008 344.5,35.5C 343.833,36.1667 343.167,36.8333 342.5,37.5C 341.468,29.726 344.468,24.226 351.5,21C 359.493,20.5003 367.493,20.3336 375.5,20.5 Z"/></g>
<g><path style="opacity:0.999" fill="#abb0b7" d="M 375.5,20.5 C 377.5,20.5 379.5,20.5 381.5,20.5C 392.659,21.3306 403.993,21.8306 415.5,22C 407.427,22.0024 402.093,22.5024 399.5,23.5C 399.323,25.9806 400.323,27.8139 402.5,29C 401.376,29.2492 400.376,29.7492 399.5,30.5C 404.038,33.7399 409.038,35.4066 414.5,35.5C 414.33,36.8221 414.663,37.9887 415.5,39C 412.123,39.4517 408.789,40.1184 405.5,41C 408.5,41.3333 411.5,41.6667 414.5,42C 413.584,42.2784 412.918,42.7784 412.5,43.5C 408.833,43.5 405.167,43.5 401.5,43.5C 402.263,42.7321 403.263,42.2321 404.5,42C 398.706,39.2159 392.706,36.8825 386.5,35C 383.068,32.633 382.735,29.9663 385.5,27C 383.651,25.907 381.984,24.5737 380.5,23C 378.292,22.8091 376.292,22.3091 374.5,21.5C 375.167,21.5 375.5,21.1667 375.5,20.5 Z"/></g>
<g><path style="opacity:1" fill="#b4b6bd" d="M 381.5,20.5 C 394.504,20.3334 407.504,20.5001 420.5,21C 423.562,22.0608 426.062,23.8941 428,26.5C 429.325,31.4012 429.825,36.4012 429.5,41.5C 424.097,43.2051 418.43,43.8718 412.5,43.5C 412.918,42.7784 413.584,42.2784 414.5,42C 411.5,41.6667 408.5,41.3333 405.5,41C 408.789,40.1184 412.123,39.4517 415.5,39C 414.663,37.9887 414.33,36.8221 414.5,35.5C 409.038,35.4066 404.038,33.7399 399.5,30.5C 400.376,29.7492 401.376,29.2492 402.5,29C 400.323,27.8139 399.323,25.9806 399.5,23.5C 402.093,22.5024 407.427,22.0024 415.5,22C 403.993,21.8306 392.659,21.3306 381.5,20.5 Z"/></g>
<g><path style="opacity:1" fill="#9da3ae" d="M 366.5,48.5 C 366.5,49.8333 366.5,51.1667 366.5,52.5C 366.5,69.8333 366.5,87.1667 366.5,104.5C 365.515,100.366 365.182,96.0323 365.5,91.5C 365.832,78.8158 365.499,66.1492 364.5,53.5C 364.845,55.3823 364.345,57.3823 363,59.5C 362.667,58.1667 362.333,56.8333 362,55.5C 361.667,58.8333 361.333,62.1667 361,65.5C 360.808,63.4233 360.308,61.4233 359.5,59.5C 357.866,59.032 356.7,58.032 356,56.5C 355.667,57.1667 355.333,57.8333 355,58.5C 351.845,56.7875 350.178,54.1208 350,50.5C 349.586,50.9574 349.086,51.2907 348.5,51.5C 346.336,48.4051 345.002,45.0718 344.5,41.5C 344.5,39.5 344.5,37.5 344.5,35.5C 344.34,33.8008 344.506,32.1341 345,30.5C 345.333,30.8333 345.667,31.1667 346,31.5C 346.691,29.1088 347.691,29.1088 349,31.5C 349.718,30.5494 350.551,30.3828 351.5,31C 350.398,33.4009 350.231,35.9009 351,38.5C 351.333,36.8333 351.667,35.1667 352,33.5C 357.3,38.1485 362.134,43.1485 366.5,48.5 Z"/></g>
<g><path style="opacity:1" fill="#b7bac1" d="M 429.5,41.5 C 445.813,39.146 452.813,46.146 450.5,62.5C 457.093,61.5391 463.093,62.8724 468.5,66.5C 469.609,68.3853 470.443,70.3853 471,72.5C 471.83,95.0038 471.663,117.337 470.5,139.5C 470.5,132.833 470.5,126.167 470.5,119.5C 470.666,111.493 470.5,103.493 470,95.5C 469.667,95.8333 469.333,96.1667 469,96.5C 466.322,94.1205 465.822,91.2871 467.5,88C 467.369,85.7473 466.869,83.5806 466,81.5C 465.667,82.1667 465.333,82.8333 465,83.5C 461.67,79.514 458.337,75.514 455,71.5C 454.667,72.1667 454.333,72.8333 454,73.5C 453.667,72.1667 453.333,70.8333 453,69.5C 452.586,69.9574 452.086,70.2907 451.5,70.5C 451.001,67.7827 449.835,65.4494 448,63.5C 447.283,64.0442 446.783,64.7109 446.5,65.5C 441.167,65.5 435.833,65.5 430.5,65.5C 430.047,64.5416 429.381,63.7083 428.5,63C 430.405,62.1739 430.739,61.0072 429.5,59.5C 428.735,60.6119 427.735,61.2786 426.5,61.5C 426.807,55.9066 426.473,50.4066 425.5,45C 408.837,44.5001 392.17,44.3334 375.5,44.5C 383.984,43.507 392.651,43.1736 401.5,43.5C 405.167,43.5 408.833,43.5 412.5,43.5C 418.43,43.8718 424.097,43.2051 429.5,41.5 Z"/></g>
<g><path style="opacity:1" fill="#9399a6" d="M 344.5,41.5 C 345.002,45.0718 346.336,48.4051 348.5,51.5C 349.086,51.2907 349.586,50.9574 350,50.5C 350.178,54.1208 351.845,56.7875 355,58.5C 355.333,57.8333 355.667,57.1667 356,56.5C 356.7,58.032 357.866,59.032 359.5,59.5C 360.308,61.4233 360.808,63.4233 361,65.5C 361.333,62.1667 361.667,58.8333 362,55.5C 362.333,56.8333 362.667,58.1667 363,59.5C 364.345,57.3823 364.845,55.3823 364.5,53.5C 365.499,66.1492 365.832,78.8158 365.5,91.5C 363.043,88.0447 361.876,84.0447 362,79.5C 361.667,80.8333 361.333,82.1667 361,83.5C 358.804,80.4404 357.137,77.107 356,73.5C 355.667,74.5 355.333,75.5 355,76.5C 354.385,74.8839 353.385,73.5505 352,72.5C 350.913,74.9316 350.413,74.5983 350.5,71.5C 349.5,71.5 348.5,71.5 347.5,71.5C 347.998,68.3192 347.165,65.6525 345,63.5C 344.5,56.1742 344.334,48.8409 344.5,41.5 Z"/></g>
<g><path style="opacity:0.978" fill="#abb0b8" d="M 430.5,65.5 C 430.667,76.1719 430.5,86.8385 430,97.5C 428.684,102.648 425.517,105.982 420.5,107.5C 420.782,106.222 421.449,105.222 422.5,104.5C 424.027,102.402 425.694,101.068 427.5,100.5C 426.833,99.5 426.167,98.5 425.5,97.5C 426.311,96.7836 426.978,95.9503 427.5,95C 427.057,88.935 425.891,83.7683 424,79.5C 423.818,82.2263 423.318,84.8929 422.5,87.5C 420.261,84.9089 418.761,81.9089 418,78.5C 414.193,76.938 411.526,74.2714 410,70.5C 406.69,68.8536 404.023,66.5203 402,63.5C 401,64.1667 400,64.8333 399,65.5C 397.416,64.1387 395.582,63.472 393.5,63.5C 404.5,62.8333 415.5,62.1667 426.5,61.5C 427.735,61.2786 428.735,60.6119 429.5,59.5C 430.739,61.0072 430.405,62.1739 428.5,63C 429.381,63.7083 430.047,64.5416 430.5,65.5 Z"/></g>
<g><path style="opacity:1" fill="#a0a5b0" d="M 393.5,63.5 C 395.582,63.472 397.416,64.1387 399,65.5C 400,64.8333 401,64.1667 402,63.5C 404.023,66.5203 406.69,68.8536 410,70.5C 411.526,74.2714 414.193,76.938 418,78.5C 418.761,81.9089 420.261,84.9089 422.5,87.5C 423.318,84.8929 423.818,82.2263 424,79.5C 425.891,83.7683 427.057,88.935 427.5,95C 426.978,95.9503 426.311,96.7836 425.5,97.5C 426.167,98.5 426.833,99.5 427.5,100.5C 425.694,101.068 424.027,102.402 422.5,104.5C 421.448,104.649 420.448,104.483 419.5,104C 421.107,102.951 421.773,101.451 421.5,99.5C 418.708,99.5479 416.875,98.2146 416,95.5C 415.549,97.9288 414.715,98.0955 413.5,96C 413.833,95.6667 414.167,95.3333 414.5,95C 409.667,92.8333 406.167,89.3333 404,84.5C 400.193,82.938 397.526,80.2714 396,76.5C 393.708,75.2101 391.708,73.5435 390,71.5C 389.751,72.624 389.251,73.624 388.5,74.5C 387.378,73.3698 386.044,72.7031 384.5,72.5C 385.177,67.1568 388.177,64.1568 393.5,63.5 Z"/></g>
<g><path style="opacity:0.994" fill="#abb0b9" d="M 470.5,119.5 C 469.732,120.263 469.232,121.263 469,122.5C 467.182,117.564 465.515,112.564 464,107.5C 463.667,109.833 463.333,112.167 463,114.5C 458.606,110.106 454.606,106.106 451,102.5C 449.135,94.8088 447.968,87.1421 447.5,79.5C 447.819,74.6367 447.486,69.97 446.5,65.5C 446.783,64.7109 447.283,64.0442 448,63.5C 449.835,65.4494 451.001,67.7827 451.5,70.5C 452.086,70.2907 452.586,69.9574 453,69.5C 453.333,70.8333 453.667,72.1667 454,73.5C 454.333,72.8333 454.667,72.1667 455,71.5C 458.337,75.514 461.67,79.514 465,83.5C 465.333,82.8333 465.667,82.1667 466,81.5C 466.869,83.5806 467.369,85.7473 467.5,88C 465.822,91.2871 466.322,94.1205 469,96.5C 469.333,96.1667 469.667,95.8333 470,95.5C 470.5,103.493 470.666,111.493 470.5,119.5 Z"/></g>
<g><path style="opacity:1" fill="#9ea3ae" d="M 422.5,104.5 C 421.449,105.222 420.782,106.222 420.5,107.5C 410.681,108.494 400.681,108.827 390.5,108.5C 395.985,107.673 401.652,107.173 407.5,107C 398.167,106.333 398.167,105.667 407.5,105C 403.108,104.872 399.442,103.205 396.5,100C 397.167,99.6667 397.833,99.3333 398.5,99C 395.657,96.489 393.157,93.6557 391,90.5C 390.667,92.1667 390.333,93.8333 390,95.5C 387.397,89.597 385.563,82.2637 384.5,73.5C 384.5,73.1667 384.5,72.8333 384.5,72.5C 386.044,72.7031 387.378,73.3698 388.5,74.5C 389.251,73.624 389.751,72.624 390,71.5C 391.708,73.5435 393.708,75.2101 396,76.5C 397.526,80.2714 400.193,82.938 404,84.5C 406.167,89.3333 409.667,92.8333 414.5,95C 414.167,95.3333 413.833,95.6667 413.5,96C 414.715,98.0955 415.549,97.9288 416,95.5C 416.875,98.2146 418.708,99.5479 421.5,99.5C 421.773,101.451 421.107,102.951 419.5,104C 420.448,104.483 421.448,104.649 422.5,104.5 Z"/></g>
<g><path style="opacity:0.992" fill="#8a929f" d="M 344.5,35.5 C 344.5,37.5 344.5,39.5 344.5,41.5C 344.334,48.8409 344.5,56.1742 345,63.5C 347.165,65.6525 347.998,68.3192 347.5,71.5C 348.5,71.5 349.5,71.5 350.5,71.5C 350.413,74.5983 350.913,74.9316 352,72.5C 353.385,73.5505 354.385,74.8839 355,76.5C 355.333,75.5 355.667,74.5 356,73.5C 357.137,77.107 358.804,80.4404 361,83.5C 361.333,82.1667 361.667,80.8333 362,79.5C 361.876,84.0447 363.043,88.0447 365.5,91.5C 365.182,96.0323 365.515,100.366 366.5,104.5C 366.833,104.5 367.167,104.5 367.5,104.5C 365.719,106.787 363.552,107.12 361,105.5C 359.106,105.539 358.106,106.206 358,107.5C 356.31,106.851 354.477,106.851 352.5,107.5C 347.661,106.828 344.495,104.162 343,99.5C 342.5,78.836 342.333,58.1694 342.5,37.5C 343.167,36.8333 343.833,36.1667 344.5,35.5 Z"/></g>
<g><path style="opacity:1" fill="#969ca7" d="M 384.5,73.5 C 385.563,82.2637 387.397,89.597 390,95.5C 390.333,93.8333 390.667,92.1667 391,90.5C 393.157,93.6557 395.657,96.489 398.5,99C 397.833,99.3333 397.167,99.6667 396.5,100C 399.442,103.205 403.108,104.872 407.5,105C 398.167,105.667 398.167,106.333 407.5,107C 401.652,107.173 395.985,107.673 390.5,108.5C 389.5,108.5 388.5,108.5 387.5,108.5C 387.5,114.167 387.5,119.833 387.5,125.5C 387.012,119.695 385.679,114.028 383.5,108.5C 378.003,109.146 373.003,109.479 368.5,109.5C 367.522,109.023 366.689,108.357 366,107.5C 364.563,111.972 364.063,116.639 364.5,121.5C 363.515,117.366 363.182,113.032 363.5,108.5C 359.629,108.815 355.962,108.482 352.5,107.5C 354.477,106.851 356.31,106.851 358,107.5C 358.106,106.206 359.106,105.539 361,105.5C 363.552,107.12 365.719,106.787 367.5,104.5C 373.167,104.5 378.833,104.5 384.5,104.5C 384.5,94.1667 384.5,83.8333 384.5,73.5 Z"/></g>
<g><path style="opacity:1" fill="#a1a6b1" d="M 447.5,79.5 C 447.968,87.1421 449.135,94.8088 451,102.5C 454.606,106.106 458.606,110.106 463,114.5C 463.333,112.167 463.667,109.833 464,107.5C 465.515,112.564 467.182,117.564 469,122.5C 469.232,121.263 469.732,120.263 470.5,119.5C 470.5,126.167 470.5,132.833 470.5,139.5C 469.765,144.737 466.765,147.904 461.5,149C 457.848,149.499 454.182,149.665 450.5,149.5C 450.833,148.833 451.167,148.167 451.5,147.5C 453.144,147.286 454.644,147.62 456,148.5C 458.558,146.862 461.391,145.696 464.5,145C 464,144.5 463.5,144 463,143.5C 459.793,146.15 459.293,145.984 461.5,143C 459.807,140.31 457.473,138.31 454.5,137C 453.54,135.581 452.707,134.081 452,132.5C 447.936,130.58 444.77,127.913 442.5,124.5C 445.049,122.444 446.549,119.778 447,116.5C 447.5,104.171 447.667,91.8378 447.5,79.5 Z"/></g>
<g><path style="opacity:0.945" fill="#8a919e" d="M 387.5,125.5 C 389.5,125.5 391.5,125.5 393.5,125.5C 392.158,126.793 390.491,127.626 388.5,128C 387.707,129.085 387.04,130.252 386.5,131.5C 387.167,131.833 387.833,132.167 388.5,132.5C 388.054,134.368 387.721,136.201 387.5,138C 389.136,139.434 390.136,141.267 390.5,143.5C 391.912,144.806 393.579,145.64 395.5,146C 401.083,146.191 406.583,146.691 412,147.5C 413.159,146.434 413.992,146.767 414.5,148.5C 407.5,148.5 400.5,148.5 393.5,148.5C 390.383,148.358 387.883,147.024 386,144.5C 384.675,139.599 384.175,134.599 384.5,129.5C 378.467,130.035 372.801,128.868 367.5,126C 365.859,124.871 364.859,123.371 364.5,121.5C 364.063,116.639 364.563,111.972 366,107.5C 366.689,108.357 367.522,109.023 368.5,109.5C 373.003,109.479 378.003,109.146 383.5,108.5C 385.679,114.028 387.012,119.695 387.5,125.5 Z"/></g>
<g><path style="opacity:0.989" fill="#949aa7" d="M 411.5,125.5 C 412.167,125.5 412.833,125.5 413.5,125.5C 418.985,126.327 424.652,126.827 430.5,127C 429.643,127.689 428.977,128.522 428.5,129.5C 433.345,133.846 438.012,138.346 442.5,143C 444.087,143.862 445.754,144.529 447.5,145C 445.913,145.862 444.246,146.529 442.5,147C 445.482,147.498 448.482,147.665 451.5,147.5C 451.167,148.167 450.833,148.833 450.5,149.5C 431.326,149.83 412.326,149.497 393.5,148.5C 400.5,148.5 407.5,148.5 414.5,148.5C 417.649,148.789 420.649,148.289 423.5,147C 421.167,146.667 418.833,146.333 416.5,146C 419.833,145.667 423.167,145.333 426.5,145C 422.929,144.982 420.596,143.315 419.5,140C 414.806,137.093 410.64,133.593 407,129.5C 406.383,128.551 406.549,127.718 407.5,127C 409.058,126.79 410.391,126.29 411.5,125.5 Z"/></g>
<g><path style="opacity:0.997" fill="#8b92a0" d="M 393.5,125.5 C 399.5,125.5 405.5,125.5 411.5,125.5C 410.391,126.29 409.058,126.79 407.5,127C 406.549,127.718 406.383,128.551 407,129.5C 410.64,133.593 414.806,137.093 419.5,140C 420.596,143.315 422.929,144.982 426.5,145C 423.167,145.333 419.833,145.667 416.5,146C 418.833,146.333 421.167,146.667 423.5,147C 420.649,148.289 417.649,148.789 414.5,148.5C 413.992,146.767 413.159,146.434 412,147.5C 406.583,146.691 401.083,146.191 395.5,146C 393.579,145.64 391.912,144.806 390.5,143.5C 390.136,141.267 389.136,139.434 387.5,138C 387.721,136.201 388.054,134.368 388.5,132.5C 387.833,132.167 387.167,131.833 386.5,131.5C 387.04,130.252 387.707,129.085 388.5,128C 390.491,127.626 392.158,126.793 393.5,125.5 Z"/></g>
<g><path style="opacity:1" fill="#9a9fab" d="M 442.5,124.5 C 444.77,127.913 447.936,130.58 452,132.5C 452.707,134.081 453.54,135.581 454.5,137C 457.473,138.31 459.807,140.31 461.5,143C 459.293,145.984 459.793,146.15 463,143.5C 463.5,144 464,144.5 464.5,145C 461.391,145.696 458.558,146.862 456,148.5C 454.644,147.62 453.144,147.286 451.5,147.5C 448.482,147.665 445.482,147.498 442.5,147C 444.246,146.529 445.913,145.862 447.5,145C 445.754,144.529 444.087,143.862 442.5,143C 438.012,138.346 433.345,133.846 428.5,129.5C 428.977,128.522 429.643,127.689 430.5,127C 424.652,126.827 418.985,126.327 413.5,125.5C 423.25,125.806 432.916,125.473 442.5,124.5 Z"/></g>
<g><path style="opacity:0.998" fill="#828998" d="M 598.5,185.5 C 599.873,185.343 601.207,185.51 602.5,186C 603.755,188.922 605.422,191.589 607.5,194C 607.241,195.261 606.574,196.261 605.5,197C 603.547,198.633 601.38,199.799 599,200.5C 598.167,200.333 597.333,200.167 596.5,200C 594.785,197.093 592.785,194.426 590.5,192C 593.355,189.969 596.022,187.803 598.5,185.5 Z"/></g>
<g><path style="opacity:0.867" fill="#8a919c" d="M 183.5,237.5 C 184.482,240.962 184.815,244.629 184.5,248.5C 185.675,248.719 186.675,248.386 187.5,247.5C 189.797,245.037 191.463,242.203 192.5,239C 191.712,234.767 191.379,230.6 191.5,226.5C 192.648,224.373 193.648,222.206 194.5,220C 193.887,213.428 193.554,207.095 193.5,201C 193.167,200.5 192.833,200 192.5,199.5C 191.52,200.981 190.353,202.315 189,203.5C 187.927,203.799 186.76,203.799 185.5,203.5C 188.172,200.169 191.505,197.835 195.5,196.5C 195.873,211.207 195.373,225.873 194,240.5C 185.991,262.101 182.491,261.101 183.5,237.5 Z"/></g>
<g><path style="opacity:1" fill="#7c8495" d="M 183.5,237.5 C 182.43,227.183 181.93,216.85 182,206.5C 183.039,205.29 184.206,204.29 185.5,203.5C 186.76,203.799 187.927,203.799 189,203.5C 190.353,202.315 191.52,200.981 192.5,199.5C 192.833,200 193.167,200.5 193.5,201C 193.554,207.095 193.887,213.428 194.5,220C 193.648,222.206 192.648,224.373 191.5,226.5C 191.379,230.6 191.712,234.767 192.5,239C 191.463,242.203 189.797,245.037 187.5,247.5C 186.675,248.386 185.675,248.719 184.5,248.5C 184.815,244.629 184.482,240.962 183.5,237.5 Z"/></g>
<g><path style="opacity:1" fill="#7e8695" d="M 302.5,196.5 C 303.5,196.5 304.5,196.5 305.5,196.5C 305.677,210.857 305.177,225.19 304,239.5C 301.704,245.147 299.37,250.814 297,256.5C 295.989,255.663 294.822,255.33 293.5,255.5C 293.359,239.136 292.859,222.802 292,206.5C 295.396,202.935 298.896,199.602 302.5,196.5 Z"/></g>
<g><path style="opacity:0.922" fill="#7f8795" d="M 526.5,196.5 C 527.5,196.5 528.5,196.5 529.5,196.5C 529.866,210.541 529.366,224.541 528,238.5C 526.443,244.951 523.776,250.951 520,256.5C 519.586,256.043 519.086,255.709 518.5,255.5C 516.922,239.189 516.088,222.856 516,206.5C 519.396,202.935 522.896,199.602 526.5,196.5 Z"/></g>
<g><path style="opacity:1" fill="#7a8394" d="M 372.5,207.5 C 375.056,207.132 377.056,207.966 378.5,210C 377.767,211.766 377.433,213.599 377.5,215.5C 374.393,215.715 371.559,215.715 369,215.5C 366.724,218.125 364.891,217.792 363.5,214.5C 364.519,212.489 365.519,210.489 366.5,208.5C 368.379,207.659 370.379,207.325 372.5,207.5 Z"/></g>
<g><path style="opacity:0.994" fill="#808897" d="M 168.5,249.5 C 168.461,247.641 169.294,246.308 171,245.5C 171.681,243.471 172.014,241.471 172,239.5C 168.569,239.932 165.069,239.932 161.5,239.5C 163.99,239.023 165.99,237.689 167.5,235.5C 165.325,225.757 163.158,216.091 161,206.5C 164.321,201.514 168.321,197.18 173,193.5C 177.844,211.312 177.51,228.979 172,246.5C 170.961,247.71 169.794,248.71 168.5,249.5 Z"/></g>
<g><path style="opacity:1" fill="#7b8394" d="M 603.5,225.5 C 601.122,227.263 601.122,229.263 603.5,231.5C 602.758,232.287 601.925,232.953 601,233.5C 601.311,234.935 601.145,236.268 600.5,237.5C 597.457,238.348 594.124,239.015 590.5,239.5C 591.609,238.71 592.942,238.21 594.5,238C 592.942,237.79 591.609,237.29 590.5,236.5C 589.895,234.974 588.729,233.974 587,233.5C 585.984,234.634 585.317,234.301 585,232.5C 584.667,233.167 584.333,233.833 584,234.5C 582.184,233.671 580.351,232.837 578.5,232C 579.416,231.626 580.25,231.126 581,230.5C 581.197,227.308 582.03,224.308 583.5,221.5C 583.167,220.833 582.833,220.167 582.5,219.5C 584.559,218.049 585.559,216.049 585.5,213.5C 585.369,212.624 585.702,211.957 586.5,211.5C 595.241,208.209 604.241,205.876 613.5,204.5C 614.415,205.328 615.081,206.328 615.5,207.5C 613.87,212.222 611.87,216.722 609.5,221C 605.152,221.573 600.819,222.24 596.5,223C 599.104,223.39 601.438,224.224 603.5,225.5 Z"/></g>
<g><path style="opacity:0.998" fill="#7f8796" d="M 585.5,213.5 C 585.559,216.049 584.559,218.049 582.5,219.5C 582.833,220.167 583.167,220.833 583.5,221.5C 582.03,224.308 581.197,227.308 581,230.5C 580.25,231.126 579.416,231.626 578.5,232C 580.351,232.837 582.184,233.671 584,234.5C 584.333,233.833 584.667,233.167 585,232.5C 585.317,234.301 585.984,234.634 587,233.5C 588.729,233.974 589.895,234.974 590.5,236.5C 585.859,235.873 581.193,235.54 576.5,235.5C 576.66,233.801 576.494,232.134 576,230.5C 574.682,233.941 572.182,235.275 568.5,234.5C 568.345,238.636 567.011,242.302 564.5,245.5C 563.307,245.03 562.64,244.03 562.5,242.5C 564.87,239.858 566.037,237.191 566,234.5C 565.667,234.167 565.333,233.833 565,233.5C 563.469,235.297 561.636,236.63 559.5,237.5C 559.5,236.5 559.5,235.5 559.5,234.5C 555.363,234.854 551.363,234.354 547.5,233C 547.141,224.402 550.807,217.735 558.5,213C 564.107,211.071 567.44,212.905 568.5,218.5C 572.135,217.886 575.802,217.552 579.5,217.5C 578.865,220.873 578.365,224.206 578,227.5C 579.893,224.382 581.226,221.049 582,217.5C 582.949,215.907 584.115,214.574 585.5,213.5 Z"/></g>
<g><path style="opacity:0.998" fill="#7d8595" d="M 224.5,212.5 C 227.187,212.336 229.854,212.503 232.5,213C 233.861,214.584 234.528,216.418 234.5,218.5C 238.135,217.886 241.802,217.552 245.5,217.5C 245.17,223.662 243.17,229.162 239.5,234C 237.866,234.494 236.199,234.66 234.5,234.5C 229.298,257.095 216.298,262.929 195.5,252C 194.643,251.311 193.977,250.478 193.5,249.5C 203.679,245.383 214.013,241.55 224.5,238C 225.337,236.989 225.67,235.822 225.5,234.5C 212.116,236.057 209.282,231.39 217,220.5C 219.705,217.964 222.205,215.297 224.5,212.5 Z"/></g>
<g><path style="opacity:0.859" fill="#8c939d" d="M 366.5,208.5 C 365.519,210.489 364.519,212.489 363.5,214.5C 364.891,217.792 366.724,218.125 369,215.5C 371.559,215.715 374.393,215.715 377.5,215.5C 377.433,213.599 377.767,211.766 378.5,210C 377.056,207.966 375.056,207.132 372.5,207.5C 375.215,205.928 378.215,204.928 381.5,204.5C 380.942,208.792 379.942,212.959 378.5,217C 372.881,217.613 367.381,218.78 362,220.5C 361.167,220.167 360.333,219.833 359.5,219.5C 360.249,216.09 361.249,212.756 362.5,209.5C 363.736,208.754 365.07,208.421 366.5,208.5 Z"/></g>
<g><path style="opacity:1" fill="#818997" d="M 432.5,212.5 C 436.514,212.334 440.514,212.501 444.5,213C 445.91,213.368 446.91,214.201 447.5,215.5C 445.377,218.246 443.377,221.079 441.5,224C 438.563,224.361 435.73,223.861 433,222.5C 430.702,223.961 428.535,225.628 426.5,227.5C 424.717,226.652 424.217,225.319 425,223.5C 428.015,220.122 430.515,216.456 432.5,212.5 Z"/></g>
<g><path style="opacity:1" fill="#7f8796" d="M 279.5,246.5 C 279.636,241.446 277.469,239.78 273,241.5C 272.25,240.874 271.416,240.374 270.5,240C 265.798,239.828 261.132,239.328 256.5,238.5C 255.459,234.862 253.792,234.529 251.5,237.5C 256.958,221.895 267.958,215.062 284.5,217C 285.704,218.353 286.371,220.019 286.5,222C 286.333,223.5 286.167,225 286,226.5C 284.135,233.402 281.968,240.069 279.5,246.5 Z M 268.5,232.5 C 273.159,232.015 274.492,233.848 272.5,238C 267.833,238.667 263.167,238.667 258.5,238C 261.344,235.121 264.678,233.288 268.5,232.5 Z"/></g>
<g><path style="opacity:0.983" fill="#808897" d="M 631.5,216.5 C 634.85,216.335 638.183,216.502 641.5,217C 643.223,217.523 644.556,218.523 645.5,220C 643.497,223.007 641.497,226.007 639.5,229C 637.045,228.749 634.545,228.249 632,227.5C 629.672,227.817 627.839,228.984 626.5,231C 623.866,231.925 622.699,231.091 623,228.5C 626.089,224.646 628.922,220.646 631.5,216.5 Z"/></g>
<g><path style="opacity:0.991" fill="#7e8796" d="M 489.5,240.5 C 485.688,241.324 481.688,241.824 477.5,242C 479.246,242.471 480.913,243.138 482.5,244C 481.09,244.368 480.09,245.201 479.5,246.5C 477.563,247.158 475.73,247.491 474,247.5C 474.077,246.262 473.911,245.262 473.5,244.5C 471.77,247.525 469.604,250.191 467,252.5C 466.329,251.748 465.496,251.414 464.5,251.5C 460.913,248.305 459.746,244.305 461,239.5C 464.601,230.249 469.434,221.749 475.5,214C 479.894,213.432 483.894,214.432 487.5,217C 486.674,220.978 485.34,224.811 483.5,228.5C 481.262,229.383 479.095,229.05 477,227.5C 474.46,229.705 472.293,232.205 470.5,235C 475.833,239.941 482.167,241.774 489.5,240.5 Z"/></g>
<g><path style="opacity:0.996" fill="#7d8695" d="M 436.5,247.5 C 436.769,245.571 436.269,243.905 435,242.5C 431.844,246.16 428.344,246.327 424.5,243C 423.874,242.25 423.374,241.416 423,240.5C 421.092,241.079 419.425,241.079 418,240.5C 416.173,238.76 416.34,237.093 418.5,235.5C 418.048,230.656 416.048,229.656 412.5,232.5C 411.233,234.371 411.233,236.204 412.5,238C 409.766,238.998 408.099,240.832 407.5,243.5C 403.595,245.024 399.595,246.357 395.5,247.5C 395.854,249.541 395.854,251.374 395.5,253C 396,253.5 396.5,254 397,254.5C 398.011,253.663 399.178,253.33 400.5,253.5C 400.119,251.058 400.786,250.391 402.5,251.5C 404.009,249.576 406.009,248.409 408.5,248C 407.216,246.703 407.383,245.536 409,244.5C 412.788,246.388 413.955,249.221 412.5,253C 414.506,255.048 415.506,254.548 415.5,251.5C 417.973,251.088 419.306,252.088 419.5,254.5C 416.214,255.207 412.881,255.54 409.5,255.5C 408.815,253.586 408.315,251.586 408,249.5C 407.487,250.527 406.987,251.527 406.5,252.5C 406.5,253.5 406.5,254.5 406.5,255.5C 401.871,256.481 397.204,256.648 392.5,256C 393.167,254.667 393.833,253.333 394.5,252C 390.921,252.337 387.254,252.504 383.5,252.5C 383.5,251.167 383.5,249.833 383.5,248.5C 375.624,251.304 367.624,253.804 359.5,256C 350.833,256.667 342.167,256.667 333.5,256C 329.647,255.153 327.647,252.82 327.5,249C 329.323,236.347 335.657,226.681 346.5,220C 347.449,219.383 348.282,219.549 349,220.5C 350.124,223.442 350.458,226.442 350,229.5C 345.867,231.81 342.034,234.476 338.5,237.5C 341.743,238.596 345.076,239.263 348.5,239.5C 363.319,238.226 377.652,234.893 391.5,229.5C 394.313,230.617 394.98,232.45 393.5,235C 395.035,235.496 396.535,235.33 398,234.5C 400.282,235.711 400.782,237.378 399.5,239.5C 402.471,240.675 405.304,240.342 408,238.5C 407.671,229.988 411.838,225.321 420.5,224.5C 420.167,229.167 419.833,233.833 419.5,238.5C 422.898,238.142 426.065,238.808 429,240.5C 430.44,239.852 431.94,239.519 433.5,239.5C 433.631,235.601 434.964,232.268 437.5,229.5C 438.902,229.865 439.902,230.699 440.5,232C 439.575,237.423 438.242,242.59 436.5,247.5 Z"/></g>
<g><path style="opacity:0.999" fill="#798293" d="M 436.5,247.5 C 435.833,250.167 435.167,252.833 434.5,255.5C 431.517,255.898 428.517,256.232 425.5,256.5C 423.215,256.324 421.215,255.657 419.5,254.5C 419.306,252.088 417.973,251.088 415.5,251.5C 415.506,254.548 414.506,255.048 412.5,253C 413.955,249.221 412.788,246.388 409,244.5C 407.383,245.536 407.216,246.703 408.5,248C 406.009,248.409 404.009,249.576 402.5,251.5C 400.786,250.391 400.119,251.058 400.5,253.5C 399.178,253.33 398.011,253.663 397,254.5C 396.5,254 396,253.5 395.5,253C 395.854,251.374 395.854,249.541 395.5,247.5C 399.595,246.357 403.595,245.024 407.5,243.5C 408.099,240.832 409.766,238.998 412.5,238C 411.233,236.204 411.233,234.371 412.5,232.5C 416.048,229.656 418.048,230.656 418.5,235.5C 416.34,237.093 416.173,238.76 418,240.5C 419.425,241.079 421.092,241.079 423,240.5C 423.374,241.416 423.874,242.25 424.5,243C 428.344,246.327 431.844,246.16 435,242.5C 436.269,243.905 436.769,245.571 436.5,247.5 Z"/></g>
<g><path style="opacity:0.998" fill="#7d8695" d="M 653.5,240.5 C 651.511,241.887 649.678,241.553 648,239.5C 647.383,240.449 647.549,241.282 648.5,242C 646.403,243.646 644.736,245.646 643.5,248C 646.106,249.65 646.106,251.15 643.5,252.5C 631.422,253.178 619.422,254.511 607.5,256.5C 608.412,251.337 609.912,246.337 612,241.5C 612.5,240.333 613.333,239.5 614.5,239C 626.555,238.326 638.555,237.16 650.5,235.5C 650.5,237.167 650.5,238.833 650.5,240.5C 651.5,240.5 652.5,240.5 653.5,240.5 Z"/></g>
<g><path style="opacity:0.995" fill="#7c8494" d="M 279.5,246.5 C 278.545,248.746 277.878,251.079 277.5,253.5C 268.806,254.314 260.139,255.314 251.5,256.5C 251.423,260.877 250.923,265.21 250,269.5C 248.644,270.38 247.144,270.714 245.5,270.5C 246.127,265.859 246.46,261.193 246.5,256.5C 243.482,256.665 240.482,256.498 237.5,256C 239.739,251.279 241.572,246.445 243,241.5C 245.473,240.88 247.973,240.214 250.5,239.5C 250.863,238.817 251.196,238.15 251.5,237.5C 253.792,234.529 255.459,234.862 256.5,238.5C 261.132,239.328 265.798,239.828 270.5,240C 271.416,240.374 272.25,240.874 273,241.5C 277.469,239.78 279.636,241.446 279.5,246.5 Z"/></g>
<g><path style="opacity:0.993" fill="#7d8696" d="M 643.5,252.5 C 646.106,251.15 646.106,249.65 643.5,248C 644.736,245.646 646.403,243.646 648.5,242C 647.549,241.282 647.383,240.449 648,239.5C 649.678,241.553 651.511,241.887 653.5,240.5C 655.297,239.27 657.297,238.604 659.5,238.5C 659.756,236.063 660.423,233.729 661.5,231.5C 662.689,230.571 664.022,230.238 665.5,230.5C 665.708,232.92 665.374,235.253 664.5,237.5C 667.811,238.118 670.978,239.118 674,240.5C 675.635,240.122 677.135,239.456 678.5,238.5C 679.58,235.668 680.58,232.835 681.5,230C 682.549,229.508 683.549,229.674 684.5,230.5C 685.641,232.421 685.808,234.421 685,236.5C 683.379,242.696 681.379,248.696 679,254.5C 676.413,256.014 673.58,256.68 670.5,256.5C 665.968,255.621 661.468,255.621 657,256.5C 655.674,256.245 654.674,255.578 654,254.5C 650.361,256.626 646.528,256.959 642.5,255.5C 643.127,254.583 643.461,253.583 643.5,252.5 Z"/></g>
<g><path style="opacity:1" fill="#818997" d="M 157.5,240.5 C 153.647,241.166 149.647,241.833 145.5,242.5C 146.376,243.251 147.376,243.751 148.5,244C 144.015,244.626 140.015,246.292 136.5,249C 137.5,250 138.5,251 139.5,252C 138.663,253.011 138.33,254.178 138.5,255.5C 130.505,253.516 127.671,248.516 130,240.5C 133.458,231.902 138.624,224.568 145.5,218.5C 147.39,221.952 147.89,225.618 147,229.5C 143.87,231.628 141.037,234.128 138.5,237C 144.375,240.166 150.708,241.333 157.5,240.5 Z"/></g>
<g><path style="opacity:1" fill="#7e8695" d="M 464.5,251.5 C 465.496,251.414 466.329,251.748 467,252.5C 469.604,250.191 471.77,247.525 473.5,244.5C 473.911,245.262 474.077,246.262 474,247.5C 475.73,247.491 477.563,247.158 479.5,246.5C 480.09,245.201 481.09,244.368 482.5,244C 480.913,243.138 479.246,242.471 477.5,242C 481.688,241.824 485.688,241.324 489.5,240.5C 492.042,239.376 494.708,238.542 497.5,238C 498.687,236.981 499.687,235.814 500.5,234.5C 498.403,230.242 495.736,226.409 492.5,223C 495.135,219.363 498.135,216.03 501.5,213C 503.112,212.28 504.612,212.446 506,213.5C 511.873,225.446 510.706,236.78 502.5,247.5C 493.518,256.146 482.851,258.98 470.5,256C 468.253,254.723 466.253,253.223 464.5,251.5 Z"/></g>
<g><path style="opacity:1" fill="#7a8293" d="M 168.5,249.5 C 165.194,252.158 161.527,254.324 157.5,256C 150.986,256.82 144.653,256.653 138.5,255.5C 138.33,254.178 138.663,253.011 139.5,252C 138.5,251 137.5,250 136.5,249C 140.015,246.292 144.015,244.626 148.5,244C 147.376,243.751 146.376,243.251 145.5,242.5C 149.647,241.833 153.647,241.166 157.5,240.5C 158.708,239.766 160.041,239.433 161.5,239.5C 165.069,239.932 168.569,239.932 172,239.5C 172.014,241.471 171.681,243.471 171,245.5C 169.294,246.308 168.461,247.641 168.5,249.5 Z"/></g>
<g><path style="opacity:1" fill="#7d8594" d="M 564.5,245.5 C 558.685,256.174 549.685,259.674 537.5,256C 534.088,254.545 530.921,252.712 528,250.5C 527.544,249.256 528.044,248.423 529.5,248C 539.606,244.807 549.606,241.307 559.5,237.5C 561.636,236.63 563.469,235.297 565,233.5C 565.333,233.833 565.667,234.167 566,234.5C 566.037,237.191 564.87,239.858 562.5,242.5C 562.64,244.03 563.307,245.03 564.5,245.5 Z"/></g>
<g><path style="opacity:1" fill="#7e8695" d="M 603.5,225.5 C 604.833,225.5 606.167,225.5 607.5,225.5C 606.979,233.419 604.979,240.919 601.5,248C 592.806,253.951 583.14,256.785 572.5,256.5C 573.452,251.098 575.118,245.931 577.5,241C 581.813,240.265 586.147,239.765 590.5,239.5C 594.124,239.015 597.457,238.348 600.5,237.5C 601.145,236.268 601.311,234.935 601,233.5C 601.925,232.953 602.758,232.287 603.5,231.5C 601.122,229.263 601.122,227.263 603.5,225.5 Z"/></g>
<g><path style="opacity:0.048" fill="#dce0ec" d="M 409.5,255.5 C 408.1,254.9 407.1,253.9 406.5,252.5C 406.987,251.527 407.487,250.527 408,249.5C 408.315,251.586 408.815,253.586 409.5,255.5 Z"/></g>
<g><path style="opacity:1" fill="#818897" d="M 407.5,259.5 C 408.822,259.33 409.989,259.663 411,260.5C 412.129,263.265 413.629,265.765 415.5,268C 412.918,272.71 409.084,274.543 404,273.5C 402.167,271 400.333,268.5 398.5,266C 401.423,263.554 404.423,261.387 407.5,259.5 Z"/></g>
<g><path style="opacity:0.994" fill="#808896" d="M 663.5,272.5 C 657.223,273.824 650.89,274.824 644.5,275.5C 645.008,271.803 645.674,268.136 646.5,264.5C 652.646,263.757 658.646,262.423 664.5,260.5C 664.605,264.548 664.272,268.548 663.5,272.5 Z"/></g>
<g><path style="opacity:1" fill="#808796" d="M 663.5,272.5 C 666.84,269.653 669.84,266.486 672.5,263C 677.066,262.462 681.399,263.296 685.5,265.5C 683.161,268.915 680.827,272.248 678.5,275.5C 672.903,272.067 668.403,273.067 665,278.5C 662.178,277.107 661.678,275.107 663.5,272.5 Z"/></g>
</svg>
