<?xml version="1.0" encoding="utf-8"?>
<svg viewBox="0 0 650 350" xmlns="http://www.w3.org/2000/svg">
  <defs>
    <clipPath clipPathUnits="userSpaceOnUse" id="clipPath3">
      <path d="M 0 337.369 L 666.667 337.369 L 666.667 -329.297 L 0 -329.297 L 0 337.369 Z" id="path3"/>
    </clipPath>
    <clipPath clipPathUnits="userSpaceOnUse" id="clipPath5">
      <path d="M 0 232.038 L 666.666 232.038 L 666.666 -434.634 L 0 -434.634 L 0 232.038 Z" id="path5"/>
    </clipPath>
    <clipPath clipPathUnits="userSpaceOnUse" id="clipPath7">
      <path d="M 0 301.12 L 666.666 301.12 L 666.666 -365.547 L 0 -365.547 L 0 301.12 Z" id="path7"/>
    </clipPath>
    <clipPath clipPathUnits="userSpaceOnUse" id="clipPath9">
      <path d="M -0.001 716.226 L 666.668 716.226 L 666.668 49.565 L -0.001 49.565 L -0.001 716.226 Z" id="path9"/>
    </clipPath>
    <clipPath clipPathUnits="userSpaceOnUse" id="clipPath11">
      <path d="M 0.005 694.42 L 666.658 694.42 L 666.658 27.753 L 0.005 27.753 L 0.005 694.42 Z" id="path11"/>
    </clipPath>
    <clipPath clipPathUnits="userSpaceOnUse" id="clipPath13">
      <path d="M 0.004 706.939 L 666.661 706.939 L 666.661 40.27 L 0.004 40.27 L 0.004 706.939 Z" id="path13"/>
    </clipPath>
    <clipPath clipPathUnits="userSpaceOnUse" id="clipPath15">
      <path d="M 0 692.394 L 666.667 692.394 L 666.667 25.726 L 0 25.726 L 0 692.394 Z" id="path15"/>
    </clipPath>
    <clipPath clipPathUnits="userSpaceOnUse" id="clipPath17">
      <path d="M 0.008 704.429 L 666.663 704.429 L 666.663 37.765 L 0.008 37.765 L 0.008 704.429 Z" id="path17"/>
    </clipPath>
    <clipPath clipPathUnits="userSpaceOnUse" id="clipPath19">
      <path d="M -0.005 694.42 L 666.668 694.42 L 666.668 27.753 L -0.005 27.753 L -0.005 694.42 Z" id="path19"/>
    </clipPath>
    <clipPath clipPathUnits="userSpaceOnUse" id="clipPath21">
      <path d="M 0.01 777.159 L 666.665 777.159 L 666.665 110.495 L 0.01 110.495 L 0.01 777.159 Z" id="path21"/>
    </clipPath>
  </defs>
  <g id="g1" transform="matrix(0.9999999999999999, 0, 0, 0.9999999999999999, -8.000000000000057, -2.842170943040401e-14)">
    <g id="group-MC0">
      <path id="path2" d="M 543.013 81.937 C 543.013 81.937 421.486 156.658 212.925 132.847 C 6.004 113.139 18.32 17.887 304.068 13.785 C 304.068 13.785 170.225 -4.279 67.586 49.093 C -35.05 102.463 141.969 168.878 241.668 178.825 C 343.252 188.965 501.138 182.115 630.053 109.031 L 543.013 81.937 Z" style="fill:#788293;fill-opacity:1;fill-rule:evenodd;stroke:none" clip-path="url(#clipPath3)"/>
      <path id="path4" d="M 346.268 17.273 C 346.268 17.273 298.85 65.308 201.547 65.308 C 201.547 65.308 280.99 89.943 388.144 34.516 L 346.268 17.273 Z" style="fill:#788293;fill-opacity:0.56;fill-rule:evenodd;stroke:none" clip-path="url(#clipPath5)"/>
      <path id="path6" d="M 432.486 44.019 C 432.486 44.019 377.676 110.882 167.676 101.643 C 167.676 101.643 322.867 143.519 492.84 67.157 L 432.486 44.019 Z" style="fill:#788293;fill-opacity:0.56;fill-rule:evenodd;stroke:none" clip-path="url(#clipPath7)"/>
      <path id="path8" d="M 169.438 236.039 L 157.786 246.992 L 146.371 235.49 L 158.337 224.774 L 169.438 236.039 Z M 140.623 237.547 L 128.971 248.567 L 117.557 236.995 L 129.445 226.367 L 140.623 237.547 Z M 198.882 270.391 C 198.882 272.815 197.373 277.255 194.355 283.708 C 191.337 290.162 188.91 294.154 187.073 295.679 C 186.181 296.364 182.165 297.815 175.027 300.028 C 168.466 301.924 161.119 303.612 152.983 305.086 C 147.735 305.875 142.958 306.508 138.655 306.982 L 132.121 307.456 L 125.35 307.456 C 122.306 307.456 119.511 307.378 116.966 307.222 C 114.419 307.063 111.993 306.799 109.683 306.432 C 105.379 305.695 101.601 304.487 98.347 302.804 C 93.151 300.284 89.529 296.656 87.482 291.927 C 86.117 288.722 85.435 284.596 85.435 279.55 L 85.514 275.684 L 85.514 273.242 L 85.907 270.563 C 85.907 269.722 86.353 267.883 87.246 265.044 C 88.663 259.896 91.182 254.427 94.803 248.646 L 95.67 248.567 C 96.562 248.567 97.467 248.818 98.386 249.32 C 99.303 249.823 99.999 250.468 100.473 251.263 L 98.11 257.52 L 96.299 264.096 C 96.09 265.099 95.933 265.932 95.827 266.591 C 95.722 267.252 95.67 267.954 95.67 268.692 C 95.67 273.446 97.769 277.274 101.967 280.178 C 105.433 282.555 110.313 284.219 116.611 285.17 C 118.817 285.435 121.531 285.672 124.759 285.883 C 127.987 286.096 130.782 286.2 133.145 286.2 C 142.801 286.2 152.603 285.487 162.549 284.063 C 172.494 282.638 180.461 280.63 186.443 278.042 C 184.29 272.29 181.405 267.011 177.783 262.206 L 189.75 245.891 C 191.534 248.263 193.713 252.61 196.285 258.932 C 198.017 263.99 198.882 267.81 198.882 270.391" style="fill:#788293;fill-opacity:0.88;fill-rule:nonzero;stroke:none" clip-path="url(#clipPath9)"/>
      <path id="path10" d="M 245.725 307.456 L 240.923 307.456 C 233.889 307.456 228.615 305.62 225.099 301.94 C 222.264 298.945 220.087 293.404 218.564 285.313 C 217.671 278.641 217.225 269.341 217.225 257.417 C 217.225 246.701 216.753 238.584 215.808 233.068 C 215.073 228.761 213.473 223.768 211.007 218.096 L 225.413 202.964 C 227.303 205.961 228.575 210.15 229.232 215.537 C 229.888 220.925 230.216 228.765 230.216 239.065 L 230.216 262.317 C 230.216 270.62 231.029 276.505 232.656 279.974 C 234.493 283.914 237.747 285.885 242.419 285.885 L 245.725 285.885 L 245.725 307.456 Z" style="fill:#788293;fill-opacity:0.88;fill-rule:nonzero;stroke:none" clip-path="url(#clipPath11)"/>
      <path id="path12" d="M 289.656 225.885 L 278.792 236.757 L 267.77 227.076 L 257.692 237.232 L 246.119 227.076 L 256.984 215.973 L 268.006 225.815 L 278.083 215.481 L 289.656 225.885 Z M 278.476 273.636 C 278.319 274.531 278.135 275.555 277.926 276.711 C 277.715 277.867 277.454 279.024 277.138 280.18 C 276.666 282.44 276.036 284.727 275.248 287.039 C 273.831 291.612 272.387 294.713 270.919 296.341 C 268.399 299.653 265.04 302.281 260.842 304.224 C 256.223 306.377 251.288 307.456 246.04 307.456 L 241.002 307.456 L 241.002 285.885 L 249.19 285.885 C 254.648 285.885 258.584 285.541 260.999 284.859 C 264.515 283.967 266.274 282.599 266.274 280.757 C 266.274 278.969 264.804 275.893 261.866 271.525 L 257.378 265.136 L 269.502 248.568 C 270.498 249.987 271.56 251.735 272.69 253.809 C 273.819 255.888 274.934 258.159 276.036 260.631 L 276.98 263.703 L 277.926 267.803 L 278.319 270.563 L 278.476 273.636 Z" style="fill:#788293;fill-opacity:0.88;fill-rule:nonzero;stroke:none" clip-path="url(#clipPath13)"/>
      <path id="path14" d="M 470.965 307.456 L 466.162 307.456 C 460.494 307.456 454.983 305.404 449.63 301.3 C 446.481 298.721 442.413 294.38 437.427 288.276 C 432.755 282.382 429.423 278.62 427.429 276.989 L 427.743 280.224 L 427.743 282.594 L 427.743 284.565 L 427.743 286.065 L 427.743 287.409 C 427.743 288.568 427.534 289.906 427.113 291.432 C 423.489 296.802 417.683 300.813 409.701 303.472 C 401.714 306.128 390.842 307.456 377.079 307.456 L 363.29 307.141 L 361.478 307.141 L 359.981 307.141 L 358.562 306.984 L 353.757 306.354 L 351.549 306.038 L 348.873 305.486 L 344.933 304.07 C 342.567 303.128 340.518 301.789 338.786 300.054 C 335.161 296.486 333.349 291.054 333.349 283.761 C 333.349 279.245 334.293 274.153 336.183 268.486 C 337.494 264.445 339.777 259.825 343.033 254.63 C 343.977 254.63 344.922 254.868 345.867 255.338 C 346.811 255.653 347.441 256.284 347.757 257.229 C 346.758 259.117 345.749 261.612 344.725 264.708 C 343.702 267.805 343.19 270.114 343.19 271.636 C 343.19 276.201 344.947 279.614 348.465 281.87 C 351.298 283.601 355.865 284.784 362.162 285.412 C 365.785 285.726 372.055 285.885 380.979 285.885 L 389.717 285.885 L 396.961 285.609 L 402.629 285.333 C 403.469 285.333 404.243 285.268 404.951 285.138 C 405.659 285.008 406.591 284.81 407.746 284.546 C 412.837 283.601 417.351 281.87 421.287 279.352 C 417.982 273.838 413.861 269.092 408.927 265.101 C 403.993 261.112 397.511 257.333 389.482 253.762 C 389.482 250.196 389.717 245.761 390.19 240.458 L 390.978 233.372 C 391.135 231.956 391.266 230.802 391.371 229.909 C 391.475 229.018 391.686 228.021 392.001 226.917 C 395.726 224.87 401.474 221.932 409.242 218.098 C 415.593 215.005 423.071 211.828 431.679 208.573 C 439.762 205.584 448.343 203.037 457.425 200.937 L 447.977 221.268 C 441.835 222.636 435.538 224.63 429.082 227.258 L 420.186 230.724 L 415.382 232.696 L 412.785 233.718 L 410.895 234.664 L 404.282 237.658 L 401.605 238.92 L 399.323 240.18 C 403.206 241.546 407.826 243.83 413.178 247.037 C 416.643 249.138 421.471 252.526 427.665 257.201 C 431.759 260.354 436.665 264.872 442.386 270.756 C 447.634 276.166 451.466 279.74 453.881 281.472 C 457.922 284.414 462.095 285.885 466.398 285.885 L 470.965 285.885 L 470.965 307.456 Z" style="fill:#788293;fill-opacity:0.88;fill-rule:nonzero;stroke:none" clip-path="url(#clipPath15)"/>
      <path id="path16" d="M 504.941 225.229 L 492.209 237.219 L 479.783 224.792 L 492.684 212.975 L 504.941 225.229 Z M 503.717 273.636 C 503.56 274.532 503.375 275.555 503.165 276.711 C 502.956 277.868 502.693 279.024 502.379 280.18 C 501.907 282.44 501.276 284.727 500.489 287.039 C 499.072 291.612 497.628 294.713 496.159 296.341 C 493.639 299.653 490.28 302.281 486.081 304.224 C 481.463 306.377 476.528 307.456 471.281 307.456 L 466.243 307.456 L 466.243 285.885 L 474.429 285.885 C 479.888 285.885 483.824 285.541 486.24 284.86 C 489.755 283.967 491.515 282.599 491.515 280.757 C 491.515 278.969 490.044 275.893 487.105 271.527 L 482.617 265.136 L 494.743 248.568 C 495.739 249.987 496.801 251.735 497.929 253.811 C 499.059 255.888 500.175 258.159 501.276 260.631 L 502.221 263.703 L 503.165 267.803 L 503.56 270.563 L 503.717 273.636 Z" style="fill:#788293;fill-opacity:0.88;fill-rule:nonzero;stroke:none" clip-path="url(#clipPath17)"/>
      <path id="path18" d="M 550.796 307.456 L 545.993 307.456 C 538.96 307.456 533.685 305.62 530.169 301.94 C 527.334 298.945 525.157 293.404 523.634 285.313 C 522.741 278.641 522.296 269.341 522.296 257.417 C 522.296 246.701 521.824 238.584 520.878 233.068 C 520.144 228.761 518.544 223.768 516.077 218.096 L 530.485 202.964 C 532.374 205.961 533.646 210.15 534.302 215.537 C 534.958 220.925 535.286 228.765 535.286 239.065 L 535.286 262.317 C 535.286 270.62 536.1 276.505 537.726 279.974 C 539.564 283.914 542.817 285.885 547.49 285.885 L 550.796 285.885 L 550.796 307.456 Z" style="fill:#788293;fill-opacity:0.88;fill-rule:nonzero;stroke:none" clip-path="url(#clipPath19)"/>
      <path id="path20" d="M 582.901 332.617 L 570.161 344.593 L 557.724 332.177 L 570.634 320.369 L 582.901 332.617 Z M 583.546 273.604 C 583.389 274.497 583.205 275.521 582.994 276.675 C 582.785 277.828 582.524 278.984 582.208 280.139 C 581.736 282.396 581.105 284.677 580.318 286.987 C 578.901 291.552 577.457 294.651 575.988 296.276 C 573.469 299.584 570.109 302.208 565.912 304.151 C 561.292 306.303 556.358 307.377 551.11 307.377 L 546.072 307.377 L 546.072 285.808 L 554.26 285.808 C 559.717 285.808 563.653 285.467 566.069 284.784 C 569.585 283.891 571.344 282.527 571.344 280.691 C 571.344 278.907 569.873 275.836 566.934 271.477 L 562.446 265.101 L 574.572 248.568 C 575.568 249.984 576.63 251.732 577.76 253.803 C 578.888 255.877 580.004 258.145 581.105 260.612 L 582.05 263.685 L 582.994 267.779 L 583.389 270.533 L 583.546 273.604 Z" style="fill:#788293;fill-opacity:0.88;fill-rule:nonzero;stroke:none" clip-path="url(#clipPath21)"/>
    </g>
  </g>
</svg>