<?xml version="1.0" encoding="UTF-8" standalone="no" ?>
<!DOCTYPE svg PUBLIC "-//W3C//DTD SVG 1.1//EN" "http://www.w3.org/Graphics/SVG/1.1/DTD/svg11.dtd">
<svg xmlns="http://www.w3.org/2000/svg" xmlns:xlink="http://www.w3.org/1999/xlink" version="1.1" width="512" height="256" viewBox="0 0 512 256" xml:space="preserve">
<desc>Created with Fabric.js 5.2.4</desc>
<defs>
</defs>
<g transform="matrix(1 0 0 1 256 128)" id="879a3683-8f3c-4083-b9c4-4c3abcfe7b60"  >
<rect style="stroke: none; stroke-width: 1; stroke-dasharray: none; stroke-linecap: butt; stroke-dashoffset: 0; stroke-linejoin: miter; stroke-miterlimit: 4; fill: rgb(0,0,0); fill-rule: nonzero; opacity: 1; visibility: hidden;" vector-effect="non-scaling-stroke"  x="-256" y="-128" rx="0" ry="0" width="512" height="256" />
</g>
<g transform="matrix(Infinity NaN NaN Infinity 0 0)" id="42f1542a-5a7e-48f6-b61c-0c7ab74d0840"  >
</g>
<g transform="matrix(2.25 0 0 2.25 172.27 21.44)"  >
<g style="" vector-effect="non-scaling-stroke"   >
		<g transform="matrix(1 0 0 1 -83.05 -18.29)"  >
<rect style="stroke: none; stroke-width: 1; stroke-dasharray: none; stroke-linecap: butt; stroke-dashoffset: 0; stroke-linejoin: miter; stroke-miterlimit: 4; fill: rgb(16,17,21); fill-opacity: 0; fill-rule: nonzero; opacity: 1;" vector-effect="non-scaling-stroke"  x="-50" y="-50" rx="0" ry="0" width="100" height="100" />
</g>
		<g transform="matrix(1 0 0 1 36.95 49.57)"  >
<path style="stroke: none; stroke-width: 1; stroke-dasharray: none; stroke-linecap: butt; stroke-dashoffset: 0; stroke-linejoin: miter; stroke-miterlimit: 4; fill: rgb(0,0,0); fill-rule: nonzero; opacity: 1;" vector-effect="non-scaling-stroke"  transform=" translate(-98.44, 18.72)" d="M 5.3 0 Q 4.6 0 4.13 -0.47 L 4.13 -0.47 Q 3.66 -0.97 3.66 -1.64 L 3.66 -1.64 L 3.66 -18.66 Q 3.66 -19.34 4.13 -19.8 L 4.13 -19.8 Q 4.6 -20.27 5.3 -20.27 L 5.3 -20.27 L 26.89 -20.27 Q 29.74 -20.27 31.73 -22.29 L 31.73 -22.29 Q 33.75 -24.32 33.75 -27.16 L 33.75 -27.16 Q 33.75 -30 31.73 -32.02 L 31.73 -32.02 Q 29.74 -34.04 26.89 -34.04 L 26.89 -34.04 L 3.98 -34.04 Q 3.31 -34.04 2.81 -34.51 L 2.81 -34.51 Q 2.34 -34.98 2.34 -35.65 L 2.34 -35.65 Q 2.34 -36.33 2.81 -36.83 L 2.81 -36.83 Q 3.31 -37.29 3.98 -37.29 L 3.98 -37.29 L 26.89 -37.29 Q 31.08 -37.29 34.04 -34.34 L 34.04 -34.34 Q 37.03 -31.35 37.03 -27.16 L 37.03 -27.16 Q 37.03 -22.97 34.04 -19.98 L 34.04 -19.98 Q 31.08 -17.02 26.89 -17.02 L 26.89 -17.02 L 6.91 -17.02 L 6.91 -1.64 Q 6.91 -0.97 6.45 -0.47 L 6.45 -0.47 Q 5.98 0 5.3 0 L 5.3 0 Z M 73.13 -20.27 L 45 -20.27 L 45 -25.2 Q 45 -28.86 47.58 -31.44 L 47.58 -31.44 Q 50.19 -34.04 53.82 -34.04 L 53.82 -34.04 L 64.31 -34.04 Q 67.94 -34.04 70.55 -31.44 L 70.55 -31.44 Q 73.13 -28.86 73.13 -25.2 L 73.13 -25.2 L 73.13 -20.27 Z M 64.31 -37.29 L 53.82 -37.29 Q 48.81 -37.29 45.26 -33.75 L 45.26 -33.75 Q 41.72 -30.21 41.72 -25.2 L 41.72 -25.2 L 41.72 -1.64 Q 41.72 -0.97 42.19 -0.47 L 42.19 -0.47 Q 42.69 0 43.36 0 L 43.36 0 Q 44.03 0 44.5 -0.47 L 44.5 -0.47 Q 45 -0.97 45 -1.64 L 45 -1.64 L 45 -17.02 L 73.13 -17.02 L 73.13 -1.64 Q 73.13 -0.97 73.62 -0.47 L 73.62 -0.47 Q 74.09 0 74.77 0 L 74.77 0 Q 75.44 0 75.91 -0.47 L 75.91 -0.47 Q 76.41 -0.97 76.41 -1.64 L 76.41 -1.64 L 76.41 -25.2 Q 76.41 -30.21 72.86 -33.75 L 72.86 -33.75 Q 69.32 -37.29 64.31 -37.29 L 64.31 -37.29 Z M 105.64 -20.27 L 84.38 -20.27 L 84.38 -34.04 L 105.64 -34.04 Q 108.49 -34.04 110.48 -32.02 L 110.48 -32.02 Q 112.5 -30 112.5 -27.16 L 112.5 -27.16 Q 112.5 -24.32 110.48 -22.29 L 110.48 -22.29 Q 108.49 -20.27 105.64 -20.27 L 105.64 -20.27 Z M 110.42 -18.22 Q 112.85 -19.54 114.29 -21.88 L 114.29 -21.88 Q 115.78 -24.32 115.78 -27.16 L 115.78 -27.16 Q 115.78 -31.35 112.79 -34.34 L 112.79 -34.34 Q 109.83 -37.29 105.64 -37.29 L 105.64 -37.29 L 82.73 -37.29 Q 82.06 -37.29 81.56 -36.83 L 81.56 -36.83 Q 81.09 -36.33 81.09 -35.65 L 81.09 -35.65 L 81.09 -1.64 Q 81.09 -0.97 81.56 -0.47 L 81.56 -0.47 Q 82.06 0 82.73 0 L 82.73 0 Q 83.41 0 83.88 -0.47 L 83.88 -0.47 Q 84.38 -0.97 84.38 -1.64 L 84.38 -1.64 L 84.38 -17.02 L 103.68 -17.02 Q 107.31 -17.02 109.92 -14.41 L 109.92 -14.41 Q 112.5 -11.84 112.5 -8.17 L 112.5 -8.17 L 112.5 -1.64 Q 112.5 -0.97 113 -0.47 L 113 -0.47 Q 113.47 0 114.14 0 L 114.14 0 Q 114.81 0 115.28 -0.47 L 115.28 -0.47 Q 115.78 -0.97 115.78 -1.64 L 115.78 -1.64 L 115.78 -8.17 Q 115.78 -14.62 110.42 -18.22 L 110.42 -18.22 Z M 153.52 0 Q 152.81 0 152.31 -0.53 L 152.31 -0.53 L 123.75 -31.49 L 123.75 -1.64 Q 123.75 -0.97 123.25 -0.47 L 123.25 -0.47 Q 122.78 0 122.11 0 L 122.11 0 Q 121.44 0 120.94 -0.47 L 120.94 -0.47 Q 120.47 -0.97 120.47 -1.64 L 120.47 -1.64 L 120.47 -35.65 Q 120.47 -36.77 121.52 -37.18 L 121.52 -37.18 Q 122.55 -37.59 123.31 -36.77 L 123.31 -36.77 L 151.88 -5.83 L 151.88 -35.65 Q 151.88 -36.33 152.37 -36.83 L 152.37 -36.83 Q 152.84 -37.29 153.52 -37.29 L 153.52 -37.29 Q 154.19 -37.29 154.66 -36.83 L 154.66 -36.83 Q 155.16 -36.33 155.16 -35.65 L 155.16 -35.65 L 155.16 -1.64 Q 155.16 -0.53 154.1 -0.12 L 154.1 -0.12 Q 153.84 0 153.52 0 L 153.52 0 Z M 191.25 -20.27 L 163.13 -20.27 L 163.13 -25.2 Q 163.13 -28.86 165.7 -31.44 L 165.7 -31.44 Q 168.31 -34.04 171.94 -34.04 L 171.94 -34.04 L 182.43 -34.04 Q 186.06 -34.04 188.67 -31.44 L 188.67 -31.44 Q 191.25 -28.86 191.25 -25.2 L 191.25 -25.2 L 191.25 -20.27 Z M 182.43 -37.29 L 171.94 -37.29 Q 166.93 -37.29 163.39 -33.75 L 163.39 -33.75 Q 159.84 -30.21 159.84 -25.2 L 159.84 -25.2 L 159.84 -1.64 Q 159.84 -0.97 160.31 -0.47 L 160.31 -0.47 Q 160.81 0 161.48 0 L 161.48 0 Q 162.16 0 162.63 -0.47 L 162.63 -0.47 Q 163.13 -0.97 163.13 -1.64 L 163.13 -1.64 L 163.13 -17.02 L 191.25 -17.02 L 191.25 -1.64 Q 191.25 -0.97 191.75 -0.47 L 191.75 -0.47 Q 192.22 0 192.89 0 L 192.89 0 Q 193.56 0 194.03 -0.47 L 194.03 -0.47 Q 194.53 -0.97 194.53 -1.64 L 194.53 -1.64 L 194.53 -25.2 Q 194.53 -30.21 190.99 -33.75 L 190.99 -33.75 Q 187.44 -37.29 182.43 -37.29 L 182.43 -37.29 Z" stroke-linecap="round" />
</g>
</g>
</g>
</svg>